<svg id="bmh" xmlns="http://www.w3.org/2000/svg" viewBox="0 0 74.32 76.57"><defs><style>.cls-1{fill:#5e72e4}</style></defs><path class="cls-1" d="M77.2 42.29L68.05 23.1v-.22c.12-.81 1.06-8-3.1-13.38S50.21 1.37 37.89 1.37c-.51 0 .55 0 0 0s.52 0 0 0C28 1.77 13.48 5.2 8.35 11.69 1 20.86 3.19 34.68 4.09 40.34L9.93 59.8v15.63a2.43 2.43 0 002.4 2.4 2.35 2.35 0 002.4-2.4v-16a2.47 2.47 0 00-.12-.75l-5.74-19.4c0-.3.07.42 0 0-.7-4.5-2.68-17.23 3.34-24.74 4.17-5.23 17.17-8.08 26.12-8.47 1.05-.1-1 0 0 0 10.45 0 19.82 2.29 23.08 6.36 1.88 2.42 2.72 6.65 2 10.29v.06a2.74 2.74 0 00.17 1.68L72 42.08l-5.7 2.19a2.24 2.24 0 00-1.63 2.64v.32c.16.77 1.48 7.6-1.81 11.79-1.64 2.13-5.9 3.51-10.63 3.51a2.88 2.88 0 00-1.89.71 2.22 2.22 0 00-.66 1.54l-.5 10.75a2.51 2.51 0 002.33 2.4 2.61 2.61 0 001.88-1 2 2 0 00.3-1.53l.35-8.28h.54c4-.38 9.21-1.94 11.75-5.17 2.27-2.82 3.37-6.65 3.25-11.38 0-.77-.06-1.53-.14-2.28v-.4l6.76-2.54a2.68 2.68 0 001-3.06z" transform="translate(-3.07 -1.36)"/><path class="cls-1" d="M51.2 30.93H49a12.78 12.78 0 00-2.08-5l1.6-1.61a2.39 2.39 0 00.74-1.84 2.12 2.12 0 00-.74-1.57 2.26 2.26 0 00-1.7-.69 2.33 2.33 0 00-1.71.79l-1.55 1.56a12.47 12.47 0 00-4.94-2v-2.24a2.4 2.4 0 00-4.8 0v2.25A12.76 12.76 0 0029 22.66L27.3 21a2.4 2.4 0 00-4.1 1.71 2.36 2.36 0 00.79 1.7l1.61 1.62a12.42 12.42 0 00-2 4.88h-2.7l-.41.08a2.31 2.31 0 00-1.35.9l-.07.14a2.77 2.77 0 00-.37 1.38 2.35 2.35 0 002.4 2.3h2.56a12.69 12.69 0 002 4.73l-1.8 1.81a3.11 3.11 0 00-.56 1.56 2.35 2.35 0 002.4 2.4 2.89 2.89 0 001.7-.7l1.68-1.68a13 13 0 004.72 1.94v2.44a2.4 2.4 0 004.8 0v-2.4a12.05 12.05 0 003.19-1 12.88 12.88 0 001.67-.92l1.41 1.43a2.22 2.22 0 001.83.95h.3a2.26 2.26 0 001.6-.8 2.87 2.87 0 00.6-1.6 2.59 2.59 0 00-.7-1.71l-1.59-1.6a12.43 12.43 0 002-4.79h2.29a2.43 2.43 0 002.4-2.4 2.35 2.35 0 00-2.4-2.44zm-15 11a8.81 8.81 0 118.8-8.77A8.81 8.81 0 0136.23 42z" transform="translate(-3.07 -1.36)"/></svg>