<svg xmlns="http://www.w3.org/2000/svg" viewBox="0 0 75.28 76.34"><path d="M75.24 40.56a2.45 2.45 0 00-1.88-2.83l-16.37-6.36v-22a2.44 2.44 0 00-1.47-2.51C54.7 6.83 37.95-.76 36.88.07L19.47 6.75a2.39 2.39 0 00-2.09 1.7 2.62 2.62 0 000 1v21.5L1.57 37.86A2.33 2.33 0 00.1 39.99L0 65.24a2.31 2.31 0 001.3 2.11l17 8.5a2.4 2.4 0 002.95 0l16.39-7.13c1.15.2 17.9 8.52 18.57 7.52a2.26 2.26 0 001-.6l16.73-9.4a2.48 2.48 0 001.25-2V40.6zM17.46 50.89v19.35L4.79 63.86l.1-19.84zm14.77-9.87l-12.34 5.8-12-6.52 11.9-5.17zm3 3.75v20L22.16 70.4V50.91zm.06-27v19.52l-13.16-6.2V12.64zm13.25-8.53l-10.82 4.42-11.4-4.42 11.4-4.29zm18.84 31.21l-11.81 6.37-12.32-5.8 11.54-5.42zM53.26 50.97v19.51L39.94 64.7v-20zM40.03 37.35V17.71l12.35-5.1v18.93zm30.65 25.62l-12.75 7.09V50.85l12.68-6.93z" fill="#172b4d"/></svg>