<svg xmlns="http://www.w3.org/2000/svg" style="display: none;">
    <symbol id="as" viewBox="0 0 70.46 76.1"><path class="fill-secondary" d="M72.46,8.88h-25c-2.3-5.19-4.74-7.6-7.65-7.6h-.24c-3.86.19-6.26,4.7-7.41,7.6H6.8a2.35,2.35,0,0,0-2.4,2.4V75a2.35,2.35,0,0,0,2.4,2.4H72.46a2.43,2.43,0,0,0,2.4-2.4V11.28A2.35,2.35,0,0,0,72.46,8.88Zm-35,0a7.38,7.38,0,0,1,2-2.66L39.77,6l.33.26a8.51,8.51,0,0,1,2,2.61Zm-3.74,5h0l17.77-.09v5.3H27.91v-5.3l5.83.09Zm-8.23,10h28.3a2.37,2.37,0,0,0,2.4-2.4v-7.7H70.06v58.9H9.2V13.78H23.11v7.7A2.43,2.43,0,0,0,25.51,23.88Z" transform="translate(-4.4 -1.28)"/><path class="fill-secondary" d="M34.94,57.92l.13.09a2.5,2.5,0,0,0,1.44.57,2.51,2.51,0,0,0,1-.37h0L58.32,37.78a2.61,2.61,0,0,0,.49-1.6A2.15,2.15,0,0,0,58,34.44a2.35,2.35,0,0,0-1.57-.66,2.64,2.64,0,0,0-1.81.79L36.51,52.86l-9.29-9.28a2,2,0,0,0-1.71-.8,2.31,2.31,0,0,0-1.6.59,2.55,2.55,0,0,0-.76,1.71,2.29,2.29,0,0,0,.66,1.71Zm2.6.29Z" transform="translate(-4.4 -1.28)"/></symbol>

    <symbol id="bmh" viewBox="0 0 74.32 76.57"><path class="fill-primary" d="M77.2,42.29,68.05,23.1l0-.22c.12-.81,1.06-8-3.1-13.38S50.21,1.37,37.89,1.37c-.51,0,.55,0,0,0s.52,0,0,0C28,1.77,13.48,5.2,8.35,11.69,1,20.86,3.19,34.68,4.09,40.34h0L9.93,59.8V75.43a2.43,2.43,0,0,0,2.4,2.4,2.35,2.35,0,0,0,2.4-2.4v-16a2.47,2.47,0,0,0-.12-.75L8.87,39.28h0c0-.3.07.42,0,0-.7-4.5-2.68-17.23,3.34-24.74,4.17-5.23,17.17-8.08,26.12-8.47,1.05-.1-1,0,0,0,10.45,0,19.82,2.29,23.08,6.36,1.88,2.42,2.72,6.65,2,10.29v.06a2.74,2.74,0,0,0,.17,1.68L72,42.08l-5.7,2.19a2.24,2.24,0,0,0-1.63,2.64l0,.32c.16.77,1.48,7.6-1.81,11.79-1.64,2.13-5.9,3.51-10.63,3.51h0a2.88,2.88,0,0,0-1.89.71,2.22,2.22,0,0,0-.66,1.54l-.5,10.75a2.51,2.51,0,0,0,2.33,2.4h0a2.61,2.61,0,0,0,1.88-1,2,2,0,0,0,.3-1.53l.35-8.28.54,0c4-.38,9.21-1.94,11.75-5.17,2.27-2.82,3.37-6.65,3.25-11.38,0-.77-.06-1.53-.14-2.28l0-.4,6.76-2.54h0A2.68,2.68,0,0,0,77.2,42.29Z" transform="translate(-3.07 -1.36)"/><path class="fill-primary" d="M51.2,30.93H49a12.78,12.78,0,0,0-2.08-5l1.6-1.61a2.39,2.39,0,0,0,.74-1.84,2.12,2.12,0,0,0-.74-1.57,2.26,2.26,0,0,0-1.7-.69,2.33,2.33,0,0,0-1.71.79l-1.55,1.56a12.47,12.47,0,0,0-4.94-2V18.33a2.4,2.4,0,0,0-4.8,0v2.25A12.76,12.76,0,0,0,29,22.66L27.3,21a2.4,2.4,0,0,0-4.1,1.71,2.36,2.36,0,0,0,.79,1.7l1.61,1.62a12.42,12.42,0,0,0-2,4.88H20.9l-.41.08a2.31,2.31,0,0,0-1.35.9l-.07.14a2.77,2.77,0,0,0-.37,1.38,2.35,2.35,0,0,0,2.4,2.3h2.56a12.69,12.69,0,0,0,2,4.73l-1.8,1.81a3.11,3.11,0,0,0-.56,1.56,2.35,2.35,0,0,0,2.4,2.4,2.89,2.89,0,0,0,1.7-.7l1.68-1.68a13,13,0,0,0,4.72,1.94v2.44a2.4,2.4,0,0,0,4.8,0V45.81a12.05,12.05,0,0,0,3.19-1,12.88,12.88,0,0,0,1.67-.92l1.41,1.43a2.22,2.22,0,0,0,1.83.95H47a2.26,2.26,0,0,0,1.6-.8,2.87,2.87,0,0,0,.6-1.6,2.59,2.59,0,0,0-.7-1.71l-1.59-1.6a12.43,12.43,0,0,0,2-4.79H51.2a2.43,2.43,0,0,0,2.4-2.4A2.35,2.35,0,0,0,51.2,30.93Zm-15,11A8.81,8.81,0,1,1,45,33.16,8.81,8.81,0,0,1,36.23,42Z" transform="translate(-3.07 -1.36)"/></symbol>

    <symbol id="ec" viewBox="0 0 75.28 76.34"><path class="fill-default" d="M77.45,42.32h0a2.45,2.45,0,0,0-1.88-2.83L59.2,33.13v-22a2.44,2.44,0,0,0-1.47-2.51C56.91,8.59,40.16,1,39.09,1.83L21.68,8.51a2.39,2.39,0,0,0-2.09,1.7,2.62,2.62,0,0,0,0,1v21.5L3.78,39.62a2.33,2.33,0,0,0-1.47,2.13L2.21,67a2.31,2.31,0,0,0,1.3,2.11l17,8.5a2.4,2.4,0,0,0,2.95,0l16.39-7.13C41,70.68,57.75,79,58.42,78a2.26,2.26,0,0,0,1-.6L76.15,68A2.48,2.48,0,0,0,77.4,66l0-23.64ZM19.67,52.65V72L7,65.62l.1-19.84Zm14.77-9.87L22.1,48.58l-12-6.52L22,36.89Zm3,3.75,0,20L24.37,72.16V52.67Zm.06-27V39.05l-13.16-6.2V14.4ZM50.75,11,39.93,15.42,28.53,11l11.4-4.29ZM69.59,42.21,57.78,48.58l-12.32-5.8L57,37.36ZM55.47,52.73l0,19.51L42.15,66.46l0-20ZM42.24,39.11V19.47l12.35-5.1V33.3ZM72.89,64.73,60.14,71.82l0-19.21,12.68-6.93Z" transform="translate(-2.21 -1.76)"/></symbol>

    <symbol id="ot" viewBox="0 0 77.06 74.33"><path class="fill-success" d="M76,30.64A6.5,6.5,0,0,0,71,28.87,15,15,0,0,0,65.66,30a1.77,1.77,0,0,0-.94.59L33.85,61.42a2,2,0,0,0-.71,1.31l-1.9,10.05V73a2.44,2.44,0,0,0,2.5,2.5l11.4-2.27a3,3,0,0,0,1.23-.66l31-30.79a2.07,2.07,0,0,0,.65-.9l.13-.33C78.49,39,79.34,33.55,76,30.64ZM36.76,69.77l1.18-5.54L67.88,34.3l.21,0c2.11-.71,3.88-.77,4.63-.17,1.11.88.94,3.31.88,4.19l0,.3-30,29.79Z" transform="translate(-1.44 -2.31)"/><path class="fill-success" d="M26.85,71.85C12,66.33,10.7,62.93,10.67,62c-.09-2.16,6-5,8.85-6.32l1.07-.5c.74-.34,1.91-.79,3.27-1.32,6.33-2.42,14.2-5.44,13.78-10.5-.34-4.18-5.78-7-18.76-9.63C11.42,32.22,6.76,29.9,6.41,27.54,6,24.92,10.5,20.66,17.81,16.71,32.2,8.93,50.69,5.26,54,8.19a2.44,2.44,0,0,0,1.79.62,2.48,2.48,0,0,0,1.5-4.32c-6.39-5.68-28.67.76-41.82,7.87C8.57,16.08.56,21.86,1.51,28.27c.72,4.84,6.07,8.22,16.38,10.33,13.65,2.8,14.8,5.19,14.82,5.19s-.29,1.51-10.62,5.47c-1.45.56-2.7,1-3.6,1.46l-1,.49c-5.32,2.47-11.94,5.55-11.72,11,.2,5,6.19,9.37,19.41,14.27a2.34,2.34,0,0,0,.86.16h0A2.48,2.48,0,0,0,28.32,75a2.49,2.49,0,0,0-1.47-3.18Z" transform="translate(-1.44 -2.31)"/></symbol>

    <symbol id="slp" viewBox="0 0 76.93 74.39"><path class="fill-info" d="M53.26,55.26a2.32,2.32,0,0,0,2.37-2.37V4.68a2.32,2.32,0,0,0-2.37-2.37H3.52A2.32,2.32,0,0,0,1.15,4.68v48A2.4,2.4,0,0,0,3.52,55h8.37V63.1a2.4,2.4,0,0,0,2.37,2.37A3.13,3.13,0,0,0,15.64,65l12.84-9.65Zm-39-5H5.9V7.05H51V50.52l-23.33.06a2.3,2.3,0,0,0-1.38.5l-9.64,7.27V52.66A2.32,2.32,0,0,0,14.26,50.29Z" transform="translate(-1.15 -2.31)"/><path class="fill-info" d="M75.71,13H61.92a2.4,2.4,0,0,0-2.37,2.37,2.32,2.32,0,0,0,2.37,2.37H73.44v43H63.79a2.32,2.32,0,0,0-2.37,2.37v6.36l-10-8.27A2.53,2.53,0,0,0,50,60.73H30a2.4,2.4,0,0,0-2.38,2.37A2.32,2.32,0,0,0,30,65.47h19l13.2,10.77a2.61,2.61,0,0,0,1.44.46,2.41,2.41,0,0,0,2.37-2.37v-9h9.64A2.32,2.32,0,0,0,78.08,63V15.32A2.32,2.32,0,0,0,75.71,13Z" transform="translate(-1.15 -2.31)"/></symbol>

    <symbol id="pl-icon-behavior-mental-health" viewBox="0 0 22 23" fill="none">
        <path d="M5.52669 17.6287V21.6404C8.42549 23.4004 13.6364 22.6326 15.8796 22.0287V19.0522C20.0207 18.9487 20.107 15.9032 19.6325 14.3934L21.9619 13.4875C21.8325 12.1934 19.2362 9.46968 19.3737 7.92284C19.8913 2.09935 8.24432 2.22875 4.75022 5.72285C1.95494 8.51813 4.10316 14.8248 5.52669 17.6287Z" fill="#E3E8FF"/>
        <path d="M19.8357 10.5546L17.4441 5.68905V5.63327C17.4755 5.4279 17.7212 3.60488 16.6339 2.24079C15.5466 0.876701 12.7813 0.179443 9.56118 0.179443C9.42788 0.179443 9.70493 0.179443 9.56118 0.179443C9.41742 0.179443 9.69709 0.179443 9.56118 0.179443C6.97622 0.280863 3.18112 1.15053 1.84029 2.79606C-0.0807841 5.1211 0.491617 8.62514 0.726851 10.0602L2.25326 14.9943V18.9572C2.25529 19.118 2.32203 19.2716 2.43923 19.3853C2.55643 19.499 2.71481 19.5638 2.88054 19.5658C2.96341 19.5675 3.04578 19.5529 3.12269 19.523C3.1996 19.493 3.26947 19.4482 3.32808 19.3914C3.38668 19.3345 3.43282 19.2667 3.46372 19.1921C3.49461 19.1175 3.50962 19.0376 3.50783 18.9572V14.9005C3.50755 14.8359 3.49697 14.7717 3.47647 14.7103L1.9762 9.79146C1.9762 9.7154 1.9945 9.89795 1.9762 9.79146C1.79324 8.6505 1.27573 5.42282 2.84918 3.51868C3.9391 2.19262 7.33691 1.47 9.67618 1.37112C9.95062 1.34577 9.41481 1.37112 9.67618 1.37112C12.4075 1.37112 14.8565 1.95175 15.7086 2.98369C16.2 3.59728 16.4195 4.66979 16.2314 5.5927V5.60791C16.1996 5.7509 16.2151 5.89997 16.2758 6.03388L18.4765 10.5014L16.9867 11.0567C16.8404 11.0933 16.7143 11.1835 16.6349 11.3082C16.5555 11.433 16.5289 11.5827 16.5607 11.726V11.8072C16.6025 12.0024 16.9475 13.7341 16.0876 14.7965C15.659 15.3366 14.5455 15.6865 13.3092 15.6865C13.1276 15.6867 12.9521 15.7506 12.8152 15.8665C12.7074 15.9698 12.6455 16.1099 12.6427 16.2569L12.5121 18.9826C12.5187 19.1389 12.5845 19.2874 12.6968 19.3996C12.8092 19.5118 12.9602 19.58 13.121 19.5911C13.2167 19.5847 13.3099 19.5588 13.3946 19.5152C13.4793 19.4715 13.5535 19.411 13.6124 19.3376C13.6516 19.2813 13.6787 19.218 13.6922 19.1513C13.7057 19.0847 13.7052 19.0161 13.6908 18.9496L13.7823 16.8503H13.9235C14.9689 16.7539 16.3307 16.3584 16.9946 15.5394C17.5879 14.8244 17.8754 13.8533 17.844 12.654C17.844 12.4588 17.8283 12.2661 17.8074 12.0759V11.9745L19.5743 11.3305C19.6986 11.2461 19.7913 11.1248 19.8384 10.9849C19.8856 10.845 19.8846 10.694 19.8357 10.5546Z" fill="#6772E5"/>
        <path d="M13.04 7.67456H12.4649C12.3792 7.21916 12.1938 6.78688 11.9213 6.40682L12.3395 5.99861C12.4043 5.93881 12.4551 5.86621 12.4884 5.78572C12.5218 5.70524 12.537 5.61874 12.5329 5.53208C12.5314 5.45625 12.5134 5.38157 12.4801 5.31296C12.4468 5.24435 12.3988 5.18337 12.3395 5.13401C12.2821 5.07633 12.213 5.03096 12.1364 5.00083C12.0599 4.97069 11.9777 4.95646 11.8952 4.95906C11.8104 4.96043 11.7268 4.97895 11.6499 5.01345C11.5729 5.04794 11.5042 5.09764 11.4482 5.15936L11.0431 5.5549C10.6554 5.29758 10.2149 5.1246 9.75191 5.0478V4.47985C9.75191 4.31847 9.68582 4.16369 9.56818 4.04957C9.45054 3.93545 9.29099 3.87134 9.12462 3.87134C8.95826 3.87134 8.7987 3.93545 8.68106 4.04957C8.56342 4.16369 8.49733 4.31847 8.49733 4.47985V5.05034C8.04426 5.13953 7.61524 5.31912 7.23753 5.57772L6.7932 5.15683C6.70531 5.07127 6.59316 5.01301 6.47102 4.98949C6.34889 4.96596 6.22231 4.97823 6.10739 5.02473C5.99247 5.07122 5.89441 5.14984 5.8257 5.25058C5.757 5.35132 5.72075 5.46961 5.72158 5.5904C5.72382 5.67211 5.7433 5.75252 5.77881 5.82665C5.81432 5.90079 5.86512 5.96707 5.92806 6.02143L6.34887 6.43218C6.08532 6.80356 5.90705 7.22551 5.82613 7.66949H5.12043L5.01326 7.68978C4.87107 7.72195 4.74572 7.80302 4.66041 7.91797L4.64212 7.95347C4.5789 8.05989 4.54555 8.18053 4.54541 8.30336C4.54711 8.38162 4.56468 8.45878 4.59713 8.53044C4.62958 8.6021 4.67626 8.66686 4.73451 8.72101C4.79277 8.77517 4.86145 8.81766 4.93663 8.84606C5.01182 8.87446 5.09203 8.88821 5.1727 8.88652H5.84181C5.92998 9.31667 6.10787 9.72478 6.36455 10.0858L5.89408 10.5447C5.80931 10.6613 5.75872 10.798 5.74771 10.9403C5.74593 11.0207 5.76094 11.1006 5.79183 11.1752C5.82273 11.2498 5.86887 11.3175 5.92747 11.3744C5.98608 11.4313 6.05595 11.476 6.13286 11.506C6.20977 11.536 6.29214 11.5505 6.375 11.5488C6.53908 11.5381 6.69509 11.4758 6.81933 11.3713L7.25844 10.9453C7.63212 11.1868 8.05142 11.3539 8.49211 11.4372V12.0559C8.49211 12.2173 8.5582 12.372 8.67584 12.4862C8.79347 12.6003 8.95303 12.6644 9.1194 12.6644C9.28576 12.6644 9.44532 12.6003 9.56296 12.4862C9.6806 12.372 9.74668 12.2173 9.74668 12.0559V11.4474C10.0354 11.4008 10.316 11.3155 10.5805 11.1938C10.7317 11.1266 10.8776 11.0487 11.0169 10.9606L11.3855 11.3231C11.4392 11.3978 11.5107 11.4587 11.5941 11.5007C11.6774 11.5426 11.7699 11.5644 11.8638 11.564H11.9422C12.0225 11.5596 12.101 11.5393 12.1729 11.5044C12.2448 11.4695 12.3086 11.4208 12.3604 11.3612C12.4539 11.2445 12.5086 11.103 12.5172 10.9555C12.5133 10.7941 12.4481 10.6397 12.3343 10.5219L11.9187 10.1162C12.1791 9.7516 12.3572 9.33775 12.4414 8.90174H13.04C13.2057 8.89977 13.3641 8.83502 13.4813 8.72133C13.5985 8.60763 13.6652 8.454 13.6672 8.29322C13.6705 8.212 13.6565 8.13099 13.6263 8.05519C13.596 7.97938 13.5501 7.91038 13.4914 7.85243C13.4326 7.79448 13.3623 7.74881 13.2846 7.71822C13.207 7.68763 13.1237 7.67277 13.04 7.67456ZM9.1194 10.4636C8.66341 10.4641 8.21755 10.3333 7.83831 10.0877C7.45907 9.84206 7.16353 9.49277 6.98915 9.08406C6.81478 8.67534 6.76942 8.22561 6.85883 7.79186C6.94823 7.35811 7.16837 6.95988 7.49135 6.64763C7.81433 6.33539 8.2256 6.1232 8.67303 6.03795C9.12047 5.9527 9.58392 5.99824 10.0046 6.16879C10.4254 6.33934 10.7844 6.62722 11.0363 6.99595C11.2882 7.36468 11.4215 7.79765 11.4195 8.23998C11.4215 8.83197 11.1813 9.40056 10.7515 9.82082C10.3217 10.2411 9.73749 10.4787 9.12724 10.4813L9.1194 10.4636Z" fill="#6772E5"/>
    </symbol>

    <symbol id="pl-icon-clipboard-pointer" viewBox="0 0 19 27" fill="none">
        <rect x="4.6842" y="5.57895" width="14.3158" height="20.5789" rx="1.78947" fill="#D6FACF"/>
        <path d="M10.2559 2.48094V1.74047C10.2559 1.54409 10.1779 1.35576 10.039 1.21689C9.90018 1.07802 9.71184 1 9.51546 1H7.29404C7.09766 1 6.90933 1.07802 6.77046 1.21689C6.6316 1.35576 6.55357 1.54409 6.55357 1.74047V2.48094H5.07263C4.97444 2.48094 4.88027 2.51996 4.81084 2.58939C4.7414 2.65882 4.70239 2.75299 4.70239 2.85118V5.44283C4.70239 5.54102 4.7414 5.63519 4.81084 5.70462C4.88027 5.77406 4.97444 5.81307 5.07263 5.81307H11.7369C11.8351 5.81307 11.9292 5.77406 11.9987 5.70462C12.0681 5.63519 12.1071 5.54102 12.1071 5.44283V2.85118C12.1071 2.75299 12.0681 2.65882 11.9987 2.58939C11.9292 2.51996 11.8351 2.48094 11.7369 2.48094H10.2559Z" stroke="#24B47E" stroke-width="1.43158" stroke-linecap="round" stroke-linejoin="round"/>
        <path d="M12.1071 3.59164V5.44282C12.1071 5.54102 12.0681 5.63518 11.9986 5.70461C11.9292 5.77405 11.835 5.81306 11.7368 5.81306H5.0726C4.9744 5.81306 4.88024 5.77405 4.8108 5.70461C4.74137 5.63518 4.70236 5.54102 4.70236 5.44282V3.59164H2.48094C2.08817 3.59164 1.71149 3.74767 1.43376 4.0254C1.15603 4.30313 1 4.67982 1 5.07259V20.9927C1 21.3855 1.15603 21.7622 1.43376 22.0399C1.71149 22.3176 2.08817 22.4737 2.48094 22.4737H14.3285C14.7213 22.4737 15.0979 22.3176 15.3757 22.0399C15.6534 21.7622 15.8094 21.3855 15.8094 20.9927V5.07259C15.8094 4.67982 15.6534 4.30313 15.3757 4.0254C15.0979 3.74767 14.7213 3.59164 14.3285 3.59164H12.1071Z" stroke="#24B47E" stroke-width="1.43158" stroke-linecap="round" stroke-linejoin="round"/>
        <path d="M5.44287 10.6261L7.29405 15.8094L8.40476 13.588L10.6225 12.4773L5.44287 10.6261Z" stroke="#24B47E" stroke-width="1.43158" stroke-miterlimit="10" stroke-linejoin="round"/>
        <path d="M8.40466 13.588L11.3666 16.5499" stroke="#24B47E" stroke-width="1.43158" stroke-miterlimit="10" stroke-linecap="round"/>
    </symbol>

    <symbol id="pl-icon-clipboard-check" viewBox="0 0 25 28" fill="none">
        <rect x="5.46143" y="8.68433" width="19.3095" height="18.5372" rx="0.579286" fill="#FBEEBF"/>
        <path d="M1.46143 4.00146H20.5779V23.1179H1.46143V4.00146Z" stroke="#ED8000" stroke-width="1.44822" stroke-linejoin="round"/>
        <path d="M8.99219 3.42219C9.11507 2.8429 9.84005 1.68433 11.0197 1.68433C12.1993 1.68433 12.8014 2.8429 13.0472 3.42219" stroke="#ED8000" stroke-width="1.44822" stroke-linecap="round" stroke-linejoin="round"/>
        <path d="M6.67505 14.8457L9.68412 17.9043L16.5229 10.9529" stroke="#ED8000" stroke-width="1.44822" stroke-linecap="round" stroke-linejoin="round"/>
        <path d="M6.67505 4.58081V6.60831H15.3643V4.58081" stroke="#ED8000" stroke-width="1.44822" stroke-linecap="round" stroke-linejoin="round"/>
    </symbol>

    <symbol id="pl-icon-comments" viewBox="0 0 23 24" fill="none">
        <path fill-rule="evenodd" clip-rule="evenodd" d="M22.4613 5.52689C22.4613 5.16929 22.1714 4.87939 21.8138 4.87939H7.56888C7.21128 4.87939 6.92139 5.16929 6.92139 5.52689V19.7718C6.92139 20.1294 7.21128 20.4193 7.56888 20.4193H21.8138C22.1714 20.4193 22.4613 20.1294 22.4613 19.7718V5.52689ZM18.0584 20.4195C18.416 20.4195 18.7059 20.7094 18.7059 21.067V22.922C18.7059 23.471 18.0656 23.7709 17.6439 23.4194L15.4178 21.5644C14.9526 21.1767 15.2267 20.4195 15.8323 20.4195H18.0584Z" fill="#CBF4F9"/>
        <path d="M13.905 14.1267C13.9858 14.1285 14.0661 14.1134 14.1411 14.0823C14.216 14.0512 14.2841 14.0047 14.3413 13.9456C14.3984 13.8865 14.4434 13.8161 14.4735 13.7385C14.5036 13.661 14.5182 13.578 14.5164 13.4944V0.632441C14.5182 0.548909 14.5036 0.465872 14.4735 0.388336C14.4434 0.310799 14.3984 0.240368 14.3413 0.181288C14.2841 0.122207 14.216 0.0756997 14.1411 0.0445684C14.0661 0.0134371 13.9858 -0.00167358 13.905 0.000146958H1.07299C0.992211 -0.00167358 0.911916 0.0134371 0.83694 0.0445684C0.761963 0.0756997 0.693858 0.122207 0.636728 0.181288C0.579598 0.240368 0.534626 0.310799 0.504523 0.388336C0.474419 0.465872 0.459807 0.548909 0.461568 0.632441V13.4384C0.466869 13.6031 0.533381 13.7594 0.647264 13.8747C0.761148 13.99 0.913631 14.0554 1.07299 14.0574H3.2323V16.2184C3.2343 16.3854 3.29936 16.545 3.4136 16.6632C3.52783 16.7813 3.68218 16.8486 3.84371 16.8507C3.97028 16.8384 4.09226 16.7955 4.19973 16.7253L7.51222 14.1507L13.905 14.1267ZM3.84371 12.7928H1.68698V1.26474H13.322V12.8621L7.30326 12.8781C7.17368 12.8812 7.04864 12.9281 6.94724 13.0115L4.46029 14.9511V13.4331C4.46208 13.3491 4.44731 13.2656 4.4169 13.1877C4.38648 13.1098 4.34104 13.0391 4.28335 12.9799C4.22567 12.9208 4.15694 12.8744 4.08136 12.8436C4.00577 12.8128 3.92492 12.7982 3.84371 12.8008V12.7928Z" fill="#217AB7"/>
        <path d="M19.6968 2.85219H16.1392C15.9777 2.85427 15.8233 2.92155 15.7091 3.03968C15.5949 3.15782 15.5298 3.31744 15.5278 3.48449C15.526 3.56802 15.5406 3.65106 15.5708 3.72859C15.6009 3.80613 15.6458 3.87656 15.703 3.93564C15.7601 3.99472 15.8282 4.04123 15.9032 4.07236C15.9781 4.10349 16.0584 4.1186 16.1392 4.11678H19.1112V15.5888H16.6216C16.5409 15.587 16.4606 15.6021 16.3856 15.6332C16.3106 15.6643 16.2425 15.7108 16.1854 15.7699C16.1283 15.829 16.0833 15.8994 16.0532 15.977C16.0231 16.0545 16.0085 16.1376 16.0102 16.2211V17.9179L13.4304 15.7115C13.3233 15.6325 13.1956 15.5888 13.0641 15.5861H7.90442C7.74244 15.5875 7.58743 15.6545 7.47265 15.7727C7.35786 15.8909 7.29245 16.0509 7.29043 16.2184C7.28865 16.3022 7.30334 16.3854 7.3336 16.4632C7.36386 16.5409 7.40907 16.6114 7.46648 16.6706C7.52388 16.7297 7.5923 16.7761 7.66758 16.8071C7.74286 16.8381 7.82344 16.8529 7.90442 16.8507H12.8061L16.2114 19.724C16.3209 19.802 16.4501 19.8447 16.5829 19.8468C16.7443 19.844 16.8982 19.7765 17.0123 19.6585C17.1264 19.5406 17.1917 19.3813 17.1944 19.2145V16.8134H19.6813C19.7625 16.8173 19.8436 16.8042 19.9197 16.7747C19.9958 16.7452 20.0653 16.7 20.1239 16.6419C20.1826 16.5837 20.2292 16.5138 20.2609 16.4364C20.2925 16.359 20.3086 16.2758 20.3082 16.1917V3.47115C20.3082 3.38873 20.2923 3.30714 20.2614 3.23116C20.2306 3.15519 20.1853 3.08635 20.1284 3.0287C20.0714 2.97104 20.0039 2.92573 19.9298 2.89543C19.8557 2.86512 19.7765 2.85042 19.6968 2.85219Z" fill="#217AB7"/>
    </symbol>

    <symbol id="pl-icon-desktop" viewBox="0 0 25 19" fill="none">
        <path d="M23.9525 2.5H4.22035C3.80121 2.5 3.46143 2.83475 3.46143 3.24768V15.2106C3.46143 15.6236 3.80121 15.9583 4.22035 15.9583H23.9525C24.3716 15.9583 24.7114 15.6236 24.7114 15.2106V3.24768C24.7114 2.83475 24.3716 2.5 23.9525 2.5Z" fill="#FFE0F5"/>
        <path d="M8.77851 15.875H13.9706C14.0949 15.8741 14.2182 15.8978 14.3333 15.9447C14.4484 15.9916 14.5531 16.0609 14.6413 16.1484C14.7296 16.236 14.7996 16.3402 14.8474 16.4549C14.8952 16.5697 14.9198 16.6928 14.9197 16.8171V18H7.83643V16.8171C7.83643 16.5673 7.93568 16.3276 8.11236 16.151C8.28903 15.9743 8.52865 15.875 8.77851 15.875V15.875Z" stroke="#B76AC4" stroke-width="1.13333" stroke-linecap="round" stroke-linejoin="round"/>
        <path d="M12.7948 13.75H9.96143V15.875H12.7948V13.75Z" stroke="#B76AC4" stroke-width="1.13333" stroke-linecap="round" stroke-linejoin="round"/>
        <path d="M20.5864 1H2.16976C1.77856 1 1.46143 1.31713 1.46143 1.70833V13.0416C1.46143 13.4328 1.77856 13.75 2.16976 13.75H20.5864C20.9776 13.75 21.2947 13.4328 21.2947 13.0416V1.70833C21.2947 1.31713 20.9776 1 20.5864 1Z" stroke="#B76AC4" stroke-width="1.13333" stroke-linecap="round" stroke-linejoin="round"/>
        <path d="M3.58643 4.54166L5.00309 3.125" stroke="#B76AC4" stroke-width="1.13333" stroke-linecap="round" stroke-linejoin="round"/>
        <path d="M4.29468 7.36783L5.71134 5.95825L7.83634 3.83325" stroke="#B76AC4" stroke-width="1.13333" stroke-linecap="round" stroke-linejoin="round"/>
        <path d="M1.46143 10.9167V13.0417C1.46143 13.2296 1.53606 13.4098 1.6689 13.5426C1.80174 13.6754 1.9819 13.7501 2.16976 13.7501H20.5864C20.7743 13.7501 20.9544 13.6754 21.0873 13.5426C21.2201 13.4098 21.2947 13.2296 21.2947 13.0417V10.9167" stroke="#B76AC4" stroke-width="1.13333" stroke-linecap="round" stroke-linejoin="round"/>
        <path d="M20.5863 10.9167L4.29468 10.9167" stroke="#B76AC4" stroke-width="1.13333" stroke-linecap="round" stroke-linejoin="round"/>
    </symbol>

    <symbol id="pl-icon-desktop-purple" viewBox="0 0 27 21" fill="none">
        <path d="M26.1511 2.67749H4.08502C3.6163 2.67749 3.23633 3.05183 3.23633 3.51361V16.8915C3.23633 17.3533 3.6163 17.7277 4.08502 17.7277H26.1511C26.6198 17.7277 26.9998 17.3533 26.9998 16.8915V3.51361C26.9998 3.05183 26.6198 2.67749 26.1511 2.67749Z" fill="#E3E8FF"/>
        <path d="M9.18242 17.6346H14.9886C15.1276 17.6335 15.2655 17.66 15.3942 17.7125C15.5229 17.7649 15.64 17.8424 15.7387 17.9403C15.8374 18.0382 15.9157 18.1547 15.9691 18.2831C16.0225 18.4114 16.0501 18.549 16.0501 18.6881V20.0109H8.12891V18.6881C8.12891 18.4087 8.2399 18.1407 8.43747 17.9431C8.63505 17.7455 8.90301 17.6346 9.18242 17.6346V17.6346Z" stroke="#555ABF" stroke-width="1.26738" stroke-linecap="round" stroke-linejoin="round"/>
        <path d="M13.6738 15.2581H10.5054V17.6344H13.6738V15.2581Z" stroke="#555ABF" stroke-width="1.26738" stroke-linecap="round" stroke-linejoin="round"/>
        <path d="M22.3871 1H1.79211C1.35464 1 1 1.35464 1 1.79211V14.4659C1 14.9034 1.35464 15.2581 1.79211 15.2581H22.3871C22.8246 15.2581 23.1792 14.9034 23.1792 14.4659V1.79211C23.1792 1.35464 22.8246 1 22.3871 1Z" stroke="#555ABF" stroke-width="1.26738" stroke-linecap="round" stroke-linejoin="round"/>
        <path d="M3.37598 4.96045L4.96021 3.37622" stroke="#555ABF" stroke-width="1.26738" stroke-linecap="round" stroke-linejoin="round"/>
        <path d="M4.16846 8.12111L5.75269 6.5448L8.12903 4.16846" stroke="#555ABF" stroke-width="1.26738" stroke-linecap="round" stroke-linejoin="round"/>
        <path d="M1 12.0896V14.4659C1 14.676 1.08347 14.8775 1.23202 15.026C1.38057 15.1746 1.58203 15.2581 1.79211 15.2581H22.3871C22.5972 15.2581 22.7986 15.1746 22.9472 15.026C23.0957 14.8775 23.1792 14.676 23.1792 14.4659V12.0896" stroke="#555ABF" stroke-width="1.26738" stroke-linecap="round" stroke-linejoin="round"/>
        <path d="M22.3871 12.0896L4.16846 12.0896" stroke="#555ABF" stroke-width="1.26738" stroke-linecap="round" stroke-linejoin="round"/>
    </symbol>

    <symbol id="pl-icon-draw" viewBox="0 0 23 27" fill="none">
        <path d="M2.96216 10.1476C5.92974 3.88539 14.8325 1.0352 18.913 4.94764C29.2994 13.4629 14.0906 28.0323 8.89736 26.3133C6.67167 25.5765 4.8169 24.8825 4.8169 22.3039C4.8169 19.7253 18.913 15.9988 11.123 15.6305C4.89113 15.3358 0.86734 14.568 2.96216 10.1476Z" fill="#D6FACF"/>
        <path d="M21.1212 8.70833C20.9378 8.52734 20.7196 8.38851 20.4809 8.30089C20.2422 8.21327 19.9883 8.17883 19.7359 8.19983C19.2278 8.2133 18.7263 8.32334 18.2564 8.52446C18.1543 8.55055 18.063 8.60997 17.996 8.69396L9.44307 17.5511C9.33319 17.6456 9.26273 17.7804 9.24635 17.9274L8.71994 20.8147V20.8779C8.71766 20.9729 8.73401 21.0673 8.76801 21.1555C8.80202 21.2437 8.85295 21.3239 8.91773 21.391C8.98251 21.4582 9.05978 21.511 9.14485 21.5463C9.22992 21.5815 9.32101 21.5985 9.41259 21.5961L12.5711 20.944C12.6975 20.9094 12.8142 20.8445 12.9119 20.7544L21.5008 11.9087C21.5824 11.8412 21.6447 11.7517 21.6809 11.6502L21.7169 11.5554C21.8111 11.1101 22.0466 9.54434 21.1212 8.70833ZM10.2493 19.95L10.5763 18.3584L18.8715 9.7598H18.9297C19.5143 9.55583 20.0047 9.53859 20.2125 9.71097C20.52 9.96378 20.4729 10.6619 20.4563 10.9147V11.0009L12.1444 19.5592L10.2493 19.95Z" fill="#24B47E"/>
        <path d="M7.50355 20.5476C3.38917 18.9618 3.02899 17.985 3.02068 17.7178C2.99575 17.0973 4.68306 16.2814 5.47268 15.9022L5.76914 15.7585C5.97417 15.6608 6.29833 15.5316 6.67513 15.3793C8.42894 14.6841 10.6094 13.8164 10.4931 12.3628C10.3988 11.1619 8.89163 10.3517 5.29536 9.59616C3.22848 9.16235 1.93737 8.49584 1.8404 7.81784C1.7268 7.06514 2.97358 5.84129 4.99891 4.7065C8.98583 2.47139 14.1087 1.41704 15.0258 2.2588C15.0928 2.32127 15.1712 2.36921 15.2564 2.3998C15.3416 2.43039 15.4318 2.44301 15.5217 2.43692C15.6568 2.42802 15.7863 2.37797 15.894 2.29306C16.0017 2.20814 16.0829 2.09213 16.1273 1.95957C16.1717 1.82702 16.1773 1.68383 16.1435 1.54796C16.1097 1.41209 16.038 1.28959 15.9373 1.19583C14.1669 -0.435975 7.99395 1.41417 4.35058 3.45679C2.43885 4.52551 0.219583 6.18604 0.482792 8.02756C0.682276 9.41804 2.16456 10.3891 5.02107 10.9953C8.80297 11.7997 9.12159 12.4863 9.12713 12.4863C9.13267 12.4863 9.04679 12.9201 6.18473 14.0578C5.78299 14.2186 5.43666 14.345 5.18731 14.4772L4.91025 14.618C3.43628 15.3276 1.60212 16.2124 1.66308 17.7782C1.71849 19.2146 3.37809 20.4701 7.04085 21.8778C7.11679 21.9085 7.19762 21.9241 7.27913 21.9237C7.41801 21.9206 7.55273 21.8739 7.6655 21.7898C7.77827 21.7057 7.86381 21.5881 7.91083 21.4526C7.97268 21.2754 7.9646 21.08 7.88834 20.909C7.81208 20.7379 7.6738 20.605 7.50355 20.539V20.5476Z" fill="#24B47E"/>
    </symbol>

    <symbol id="pl-icon-chat-bubbles" viewBox="0 0 31 29" fill="none">
        <path d="M6.35746 4.94995C6.11678 4.94995 5.88594 5.04556 5.71575 5.21575C5.54556 5.38594 5.44995 5.61678 5.44995 5.85746V28.6L9.84995 24.2H29.2924C29.5331 24.2 29.764 24.1043 29.9341 23.9341C30.1043 23.764 30.2 23.5331 30.2 23.2924V5.85746C30.2 5.73829 30.1765 5.62026 30.1309 5.51016C30.0853 5.40005 30.0184 5.30002 29.9341 5.21575C29.8499 5.13148 29.7498 5.06464 29.6397 5.01904C29.5296 4.97343 29.4116 4.94995 29.2924 4.94995H6.35746Z" fill="#C0F6FD"/>
        <path d="M1.90751 1C1.66683 1 1.43599 1.09561 1.2658 1.2658C1.09561 1.43599 1 1.66683 1 1.90751V24.65L5.4 20.25H24.8425C25.0832 20.25 25.314 20.1544 25.4842 19.9842C25.6544 19.814 25.75 19.5832 25.75 19.3425V1.90751C25.75 1.78834 25.7265 1.67031 25.6809 1.56021C25.6353 1.4501 25.5685 1.35007 25.4842 1.2658C25.3999 1.18153 25.2999 1.11469 25.1898 1.06909C25.0797 1.02348 24.9617 1 24.8425 1H1.90751Z" stroke="#6B7C93" stroke-width="1.6" stroke-miterlimit="10" stroke-linecap="round" stroke-linejoin="round"/>
        <path d="M5.95005 12.539C6.86132 12.539 7.60005 11.8003 7.60005 10.889C7.60005 9.97774 6.86132 9.23901 5.95005 9.23901C5.03878 9.23901 4.30005 9.97774 4.30005 10.889C4.30005 11.8003 5.03878 12.539 5.95005 12.539Z" stroke="#6B7C93" stroke-width="1.6" stroke-linecap="round" stroke-linejoin="round"/>
        <path d="M13.1 12.539C14.0112 12.539 14.75 11.8003 14.75 10.889C14.75 9.97774 14.0112 9.23901 13.1 9.23901C12.1887 9.23901 11.45 9.97774 11.45 10.889C11.45 11.8003 12.1887 12.539 13.1 12.539Z" stroke="#6B7C93" stroke-width="1.6" stroke-linecap="round" stroke-linejoin="round"/>
        <path d="M20.25 12.539C21.1612 12.539 21.9 11.8003 21.9 10.889C21.9 9.97774 21.1612 9.23901 20.25 9.23901C19.3387 9.23901 18.6 9.97774 18.6 10.889C18.6 11.8003 19.3387 12.539 20.25 12.539Z" stroke="#6B7C93" stroke-width="1.6" stroke-linecap="round" stroke-linejoin="round"/>
    </symbol>

    <symbol id="pl-icon-ribbon" viewBox="0 0 32 33" fill="none">
        <path d="M31.5866 16.2933C31.5866 18.038 29.7532 19.4048 29.126 20.9204C28.4988 22.4359 28.7762 24.7354 27.5982 25.9414C26.4201 27.1474 24.1565 26.8218 22.5844 27.4731C21.0124 28.1243 19.7016 29.9333 17.9567 29.9333C16.2117 29.9333 14.8447 28.1002 13.3289 27.4731C11.8132 26.8459 9.50532 27.1193 8.29913 25.9414C7.09294 24.7635 7.41861 22.5003 6.76727 20.9284C6.11593 19.3566 4.30664 18.0461 4.30664 16.3014C4.30664 14.5567 6.14005 13.1898 6.76727 11.6743C7.39449 10.1587 7.12108 7.85123 8.29913 6.64522C9.47718 5.43921 11.7408 5.76483 13.3129 5.11358C14.8849 4.46234 16.1957 2.65332 17.9406 2.65332C19.6856 2.65332 21.0526 4.48646 22.5684 5.11358C24.0841 5.74071 26.392 5.46735 27.5982 6.64522C28.8044 7.82309 28.4787 10.0864 29.13 11.6582C29.7814 13.23 31.5866 14.5486 31.5866 16.2933Z" fill="#CEFFD3"/>
        <path d="M26.4907 13.3339C26.4907 14.9115 24.8331 16.1474 24.2661 17.5178C23.699 18.8883 23.9498 20.9675 22.8847 22.0581C21.8196 23.1486 19.7731 22.8541 18.3518 23.443C16.9305 24.0319 15.7454 25.6677 14.1678 25.6677C12.5902 25.6677 11.3542 24.0101 9.9838 23.443C8.61337 22.876 6.52683 23.1231 5.4363 22.0581C4.34578 20.993 4.64022 18.9464 4.05133 17.5251C3.46245 16.1038 1.82666 14.9188 1.82666 13.3411C1.82666 11.7635 3.48426 10.5276 4.05133 9.15713C4.61841 7.78671 4.37122 5.70017 5.4363 4.60964C6.50138 3.51911 8.54794 3.81356 9.96926 3.22467C11.3906 2.63579 12.5756 1 14.1532 1C15.7309 1 16.9668 2.6576 18.3372 3.22467C19.7077 3.79175 21.7942 3.54456 22.8847 4.60964C23.9753 5.67472 23.6808 7.72128 24.2697 9.1426C24.8586 10.5639 26.4907 11.7562 26.4907 13.3339Z" stroke="#6B7C93" stroke-width="1.65333" stroke-miterlimit="10"/>
        <path d="M3.89333 24.1467L1 29.9334L3.89333 29.5201L5.54667 32.0001L8.44 25.8001" stroke="#6B7C93" stroke-width="1.65333" stroke-linecap="round" stroke-linejoin="round"/>
        <path d="M24.56 24.1467L27.4533 29.9334L24.56 29.5201L22.9066 32.0001L20.0133 25.8001" stroke="#6B7C93" stroke-width="1.65333" stroke-linecap="round" stroke-linejoin="round"/>
        <circle cx="14.2267" cy="13.4" r="6.61333" stroke="#6B7C93" stroke-width="1.65333" stroke-miterlimit="10"/>
    </symbol>

    <symbol id="pl-icon-atom" viewBox="0 0 28 28" fill="none">
        <circle cx="16.2481" cy="15.2873" r="11.7293" fill="#FBEEBF"/>
        <path d="M15.8571 4.53546C15.8571 2.59208 14.2816 1.01666 12.3383 1.01666C10.3949 1.01666 8.81946 2.59208 8.81946 4.53546V20.1746C8.81946 22.1179 10.3949 23.6933 12.3383 23.6933C14.2816 23.6933 15.8571 22.1179 15.8571 20.1746V4.53546Z" stroke="#F1A731" stroke-width="1.56391" stroke-miterlimit="10" stroke-linecap="round"/>
        <path d="M20.158 15.8738C22.1013 15.8738 23.6768 14.2984 23.6768 12.355C23.6768 10.4116 22.1013 8.83621 20.158 8.83621L4.51887 8.83621C2.57549 8.83621 1.00007 10.4116 1.00007 12.355C1.00007 14.2984 2.57549 15.8738 4.51887 15.8738H20.158Z" stroke="#F1A731" stroke-width="1.56391" stroke-miterlimit="10" stroke-linecap="round"/>
        <path d="M20.3554 9.31197C21.7295 7.93779 21.7295 5.70981 20.3554 4.33564C18.9812 2.96146 16.7532 2.96146 15.379 4.33564L4.32051 15.3941C2.94634 16.7683 2.94634 18.9963 4.32051 20.3705C5.69469 21.7447 7.92267 21.7447 9.29684 20.3705L20.3554 9.31197Z" stroke="#F1A731" stroke-width="1.56391" stroke-miterlimit="10" stroke-linecap="round"/>
        <path d="M15.3813 20.3721C16.7555 21.7463 18.9835 21.7463 20.3577 20.3721C21.7318 18.998 21.7318 16.77 20.3577 15.3958L9.29915 4.3373C7.92498 2.96312 5.697 2.96312 4.32282 4.3373C2.94865 5.71147 2.94865 7.93945 4.32282 9.31363L15.3813 20.3721Z" stroke="#F1A731" stroke-width="1.56391" stroke-miterlimit="10" stroke-linecap="round"/>
    </symbol>

    <symbol id="pl-icon-calendar-check" viewBox="0 0 23 25" fill="none">
        <rect x="3.75" y="4.82456" width="19.25" height="19.25" rx="1.83333" fill="#FFE0F5"/>
        <path d="M5.91069 1.1579H3.61902V3.77695H5.91069V1.1579Z" stroke="#B76AC4" stroke-width="1.46667" stroke-linecap="round" stroke-linejoin="round"/>
        <path d="M16.0595 1.1579H13.7678V3.77695H16.0595V1.1579Z" stroke="#B76AC4" stroke-width="1.46667" stroke-linecap="round" stroke-linejoin="round"/>
        <path d="M16.0595 2.46742V3.77695H13.7679V2.46742H5.91071V3.77695H3.61905V2.46742H1V6.06861H18.6786V2.46742H16.0595Z" stroke="#B76AC4" stroke-width="1.46667" stroke-linecap="round" stroke-linejoin="round"/>
        <path d="M16.0595 2.46742V3.77695H13.7679V2.46742H5.91071V3.77695H3.61905V2.46742H1V20.146H18.6786V2.46742H16.0595Z" stroke="#B76AC4" stroke-width="1.46667" stroke-linecap="round" stroke-linejoin="round"/>
        <path d="M5.25586 12.2234L8.46419 15.4317L14.4225 9.47336" stroke="#B76AC4" stroke-width="1.46667" stroke-linecap="round" stroke-linejoin="round"/>
    </symbol>

    <symbol id="pl-icon-diamond" viewBox="0 0 28 23" fill="none">
        <path d="M22.3597 3.55585H10.0171C9.41973 3.55585 8.86305 3.85869 8.53851 4.36026L5.73967 8.68574C5.31508 9.34193 5.37374 10.1994 5.88374 10.7917L15.0167 21.3978C15.7346 22.2315 17.0327 22.2102 17.7228 21.3534L26.2718 10.7409C26.7315 10.1703 26.7898 9.37467 26.4183 8.74311L23.8777 4.42407C23.5612 3.88614 22.9838 3.55585 22.3597 3.55585Z" fill="#CBF4F9"/>
        <path d="M11.9939 20.7132L1 7.06561H22.9878L11.9939 20.7132Z" stroke="#217AB7" stroke-width="1.17399" stroke-linecap="round" stroke-linejoin="round"/>
        <path d="M22.9878 7.06559H1L4.79099 1H19.1968L22.9878 7.06559Z" stroke="#217AB7" stroke-width="1.17399" stroke-linecap="round" stroke-linejoin="round"/>
        <path d="M4.79102 1L11.9939 20.7132" stroke="#217AB7" stroke-width="1.17399" stroke-linecap="round" stroke-linejoin="round"/>
        <path d="M19.1968 1L11.9939 20.3341" stroke="#217AB7" stroke-width="1.17399" stroke-linecap="round" stroke-linejoin="round"/>
        <path d="M7.06555 7.06559L11.9938 1" stroke="#217AB7" stroke-width="1.17399" stroke-linecap="round" stroke-linejoin="round"/>
        <path d="M16.9222 7.06559L11.9939 1" stroke="#217AB7" stroke-width="1.17399" stroke-linecap="round" stroke-linejoin="round"/>
    </symbol>

    <symbol id="pl-icon-film" viewBox="0 0 26 22" fill="none">
        <rect x="3.78992" y="3.80659" width="22.2101" height="17.4508" rx="1.78571" fill="#E3E8FF"/>
        <path d="M22.4442 1.01666H1V17.8657H22.4442V1.01666Z" stroke="#6772E5" stroke-width="1.26915" stroke-linecap="round" stroke-linejoin="round"/>
        <path d="M10.1904 12.1217V9.42203V6.76065L14.4027 9.44118L10.1904 12.1217Z" stroke="#6772E5" stroke-width="1.26915" stroke-linecap="round" stroke-linejoin="round"/>
        <path d="M4.82933 1.01666H1V5.22892H4.82933V1.01666Z" stroke="#6772E5" stroke-width="1.26915" stroke-linecap="round" stroke-linejoin="round"/>
        <path d="M4.82933 5.22891H1V9.44117H4.82933V5.22891Z" stroke="#6772E5" stroke-width="1.26915" stroke-linecap="round" stroke-linejoin="round"/>
        <path d="M4.82933 9.44119H1V13.6535H4.82933V9.44119Z" stroke="#6772E5" stroke-width="1.26915" stroke-linecap="round" stroke-linejoin="round"/>
        <path d="M4.82933 13.6534H1V17.8657H4.82933V13.6534Z" stroke="#6772E5" stroke-width="1.26915" stroke-linecap="round" stroke-linejoin="round"/>
        <path d="M22.4442 1.01666H18.6149V5.22892H22.4442V1.01666Z" stroke="#6772E5" stroke-width="1.26915" stroke-linecap="round" stroke-linejoin="round"/>
        <path d="M22.4442 5.22891H18.6149V9.44117H22.4442V5.22891Z" stroke="#6772E5" stroke-width="1.26915" stroke-linecap="round" stroke-linejoin="round"/>
        <path d="M22.4442 9.44119H18.6149V13.6535H22.4442V9.44119Z" stroke="#6772E5" stroke-width="1.26915" stroke-linecap="round" stroke-linejoin="round"/>
        <path d="M22.4442 13.6534H18.6149V17.8657H22.4442V13.6534Z" stroke="#6772E5" stroke-width="1.26915" stroke-linecap="round" stroke-linejoin="round"/>
    </symbol>

    <symbol id="pl-icon-expand-more" viewBox="0 0 24 24" fill="currentColor">
        <path d="M24 24H0V0h24v24z" fill="none"></path>
        <path d="M15.88 9.29L12 13.17 8.12 9.29c-.39-.39-1.02-.39-1.41 0-.39.39-.39 1.02 0 1.41l4.59 4.59c.39.39 1.02.39 1.41 0l4.59-4.59c.39-.39.39-1.02 0-1.41-.39-.38-1.03-.39-1.42 0z"></path>
    </symbol>

    <symbol id="pl-icon-search" viewBox="0 0 24 24" fill="currentColor">
        <path d="M0 0h24v24H0V0z" fill="none"></path>
        <path d="M15.5 14h-.79l-.28-.27c1.2-1.4 1.82-3.31 1.48-5.34-.47-2.78-2.79-5-5.59-5.34-4.23-.52-7.79 3.04-7.27 7.27.34 2.8 2.56 5.12 5.34 5.59 2.03.34 3.94-.28 5.34-1.48l.27.28v.79l4.25 4.25c.41.41 1.08.41 1.49 0 .41-.41.41-1.08 0-1.49L15.5 14zm-6 0C7.01 14 5 11.99 5 9.5S7.01 5 9.5 5 14 7.01 14 9.5 11.99 14 9.5 14z"></path>
    </symbol>

    <symbol id="pl-icon-mail" viewBox="0 0 29 22" fill="none">
        <rect x="3.79999" y="3.79999" width="25.2" height="17.7333" rx="0.933333" fill="#E3E8FF"/>
        <path d="M1 1L12.7919 12.8484C13.0118 13.0517 13.3004 13.1647 13.6 13.1647C13.8996 13.1647 14.1882 13.0517 14.4081 12.8484L26.2 1" stroke="#555ABF" stroke-width="1.02667" stroke-miterlimit="10" stroke-linecap="round" stroke-linejoin="round"/>
        <path d="M1 1V1.04345V18.7573V18.8138H1.05648H26.0001H26.1435H26.2V18.7573V1.04345V1H1Z" stroke="#555ABF" stroke-width="1.02667" stroke-miterlimit="10" stroke-linecap="round" stroke-linejoin="round"/>
        <path d="M1 1.56055V18.2533C1.00148 18.3032 1.01633 18.3517 1.043 18.3938C1.06968 18.436 1.10719 18.4702 1.15161 18.4929C1.19604 18.5155 1.24573 18.5258 1.2955 18.5226C1.34526 18.5195 1.39327 18.503 1.43448 18.4749L8.46667 11.7333" stroke="#555ABF" stroke-width="1.02667" stroke-miterlimit="10" stroke-linecap="round" stroke-linejoin="round"/>
        <path d="M26.2 1.56055V18.2533C26.1985 18.3032 26.1837 18.3517 26.157 18.3938C26.1303 18.436 26.0928 18.4702 26.0484 18.4929C26.004 18.5155 25.9543 18.5258 25.9045 18.5226C25.8547 18.5195 25.8067 18.503 25.7655 18.4749L18.7333 11.7333" stroke="#555ABF" stroke-width="1.02667" stroke-miterlimit="10" stroke-linecap="round" stroke-linejoin="round"/>
    </symbol>
</svg>
