<svg
    class="logo-pl"
    xmlns="http://www.w3.org/2000/svg"
    width="648"
    height="139.9"
    viewBox="0 0 648 139.9"
    fill="none"
>
    <linearGradient
        id="logo-pl-gradient_1_"
        gradientUnits="userSpaceOnUse"
        x1="10.3104"
        y1="776.865"
        x2="31.4114"
        y2="806.9999"
        gradientTransform="matrix(1 0 0 1 0 -736)"
    >
        <stop offset="0" style="stop-color:#FECF9E"/>
        <stop offset="1" style="stop-color:#F7901E"/>
    </linearGradient>

    <linearGradient
        id="logo-pl-gradient_2_"
        gradientUnits="userSpaceOnUse"
        x1="358.4105"
        y1="-465.7534"
        x2="379.5115"
        y2="-435.6174"
        gradientTransform="matrix(-1 0 0 -1 453.646 -401.5779)"
    >
        <stop offset="0" style="stop-color:#FECF9E"/>
        <stop offset="1" style="stop-color:#F7901E"/>
    </linearGradient>

    <linearGradient
        id="logo-pl-gradient_3_"
        gradientUnits="userSpaceOnUse"
        x1="-445.9588"
        y1="-31.1827"
        x2="-424.8471"
        y2="-1.032"
        gradientTransform="matrix(-5.200997e-03 -1 1 -5.200997e-03 70.8584 -350.7663)"
    >
        <stop offset="0" style="stop-color:#CACBEF"/>
        <stop offset="1" style="stop-color:#32325D"/>
    </linearGradient>

    <linearGradient
        id="logo-pl-gradient_4_"
        gradientUnits="userSpaceOnUse"
        x1="812.8794"
        y1="343.6924"
        x2="834.5824"
        y2="374.688"
        gradientTransform="matrix(9.800000e-03 1 -1 9.800000e-03 401.7614 -806.2116)"
    >
        <stop offset="0" style="stop-color:#CACBEF"/>
        <stop offset="1" style="stop-color:#32325D"/>
    </linearGradient>

    <g>
        <path
            fill="#32325D"
            d="M132.3,27.9h20c7.1,0,13.8,7.6,13.8,17.1c0,8.9-6.7,16.8-13.8,16.8h-14.5v18.3c-0.8,0.1-1.7,0.1-2.4,0.1
            c-1.2,0-2.3-0.1-3.1-0.1V27.9z M160.3,45c0-7.2-4.2-12.6-9.6-12.6h-13v25.1h13C156.1,57.5,160.3,51.7,160.3,45z M189.5,45.4
            c0.2,0.8,0.2,1.5,0.2,2.1c0,0.8-0.1,1.4-0.2,1.9c0,0-2.7-0.2-5.2-0.2c-3.8,0-6.8,0.4-6.8,0.4v30.6c-1.1,0.1-1.7,0.1-2.5,0.1
            c-1,0-2.1-0.1-2.7-0.1V45.6c0,0,5.9-0.4,10.9-0.4C186.9,45.1,189.5,45.4,189.5,45.4z M195.4,63.3c0,8.4,4.5,13.1,12.6,13.1
            c5.5,0,9.3-1.2,10.8-2c1.4,1.8,1.2,4.1,1.2,4.1s-3.7,1.9-12.1,1.9c-12.5,0-17.9-6.6-17.9-17.9c0-12,6.1-17.4,16.3-17.4
            c9.5,0,14.7,4.3,15.1,14.9l0.1,3.2L195.4,63.3L195.4,63.3z M195.4,59.5h20.5c0.1-6.6-2.3-10.4-9.6-10.4
            C199.1,49.2,195.4,53,195.4,59.5z M249,47.9c0,0-1.2,2.1-3.5,3c0,0-3.2-1.9-7.4-1.9c-5.1,0-7.5,2.1-7.5,5.3c0,4.9,3.6,5.9,10,6.4
            c5.4,0.5,10.3,3.5,10.3,9.4c0,7.7-4.7,10.5-14.4,10.5c-7.2,0-11.1-3.3-11.1-3.3s1.2-2,3.5-2.9c0,0,3.6,2.4,7.7,2.4
            c7.2,0,9.5-2.2,9.5-5.9c0-5.2-4.4-6.2-10.4-6.9c-5.8-0.7-9.9-2.7-9.9-8.9c0-7.6,4.2-10,12.4-10C245,45.1,249,47.9,249,47.9
            L249,47.9z M260.9,63.3c0,8.4,4.5,13.1,12.6,13.1c5.5,0,9.3-1.2,10.8-2c1.4,1.8,1.2,4.1,1.2,4.1s-3.7,1.9-12.1,1.9
            c-12.5,0-17.9-6.6-17.9-17.9c0-12,6.1-17.4,16.3-17.4c9.5,0,14.7,4.3,15.1,14.9l0.1,3.2L260.9,63.3L260.9,63.3z M260.9,59.5h20.5
            c0.1-6.6-2.3-10.4-9.6-10.4C264.6,49.2,260.9,53,260.9,59.5z M298,80.1c-1,0.1-1.7,0.1-2.5,0.1c-1.1,0-2.2-0.1-2.8-0.1V45.8
            l12.1-0.6c12.7-0.6,15.7,4.4,15.7,15v19.9c0,0-1.5,0.1-2.8,0.1c-0.6,0-1.6-0.1-2.4-0.1V59.5c0-7.1-1.8-10.8-10.4-10.2l-6.8,0.4
            v30.4H298z M348.5,76.1c0.1,0.7,0.2,1.3,0.2,1.9c0,0.8,0,1.7-0.1,2.1c0,0-4.1,0.3-7.1,0.3c-10.1,0-15.1-5.1-15.1-17.2
            c0-10.6,2.8-18,14.3-18c4.2,0,7.8,0.3,7.8,0.3c0.1,0.7,0.1,1.4,0.1,2c0,0.8,0,1.7-0.1,2.2c0,0-4.7-0.3-7.8-0.3
            c-7.9,0-8.8,5.9-8.8,13.8c0,9.5,2.2,13.1,9.5,13.1C344.4,76.3,347.1,76.2,348.5,76.1z M356.3,63.3c0,8.4,4.5,13.1,12.6,13.1
            c5.5,0,9.3-1.2,10.8-2c1.4,1.8,1.2,4.1,1.2,4.1s-3.7,1.9-12.1,1.9c-12.5,0-17.9-6.6-17.9-17.9c0-12,6.1-17.4,16.3-17.4
            c9.5,0,14.7,4.3,15.1,14.9l0.1,3.2L356.3,63.3L356.3,63.3z M356.3,59.5h20.5c0.1-6.6-2.3-10.4-9.6-10.4
            C360,49.2,356.3,53,356.3,59.5z"
        />
        <path
            fill="url(#logo-pl-gradient_1_)"
            d="M20.3,68.3l-1.2-0.9c-4-3.1-6.6-7.8-7.2-12.8c-1.1-8.8,5.2-20,14.5-21.7c-11.9,1.7-21,11.9-21,24.2
            c0,9.8,5.8,18.3,14.2,22.2C19.1,75.6,19.4,71.9,20.3,68.3z"
        />
        <path
            fill="#F7901E"
            d="M27.9,32.8c1.6-0.7,3.1-1.1,4.6-3.2c1.6-2.2,2.1-3.6,2.7-6.5c0.1-1.5-0.9-1.2-5.6-1.2C13.3,21.8,0,35.1,0,51.4
            C0,64.2,8,75,19.3,79.2c-1.2-0.6-2.4-1.4-3.5-2.3c-5-4-8.4-9.9-9.2-16.3C5.7,54,7.6,47.2,11.8,42C15.3,37.5,21.9,32.9,27.9,32.8z"
        />
        <circle
            fill="#F7901E"
            cx="21.4" cy="49.9" r="6.2"
        />
        <path
            fill="url(#logo-pl-gradient_2_)"
            d="M85.2,36.9l1.2,0.9c4,3.1,6.6,7.8,7.3,12.8c1.2,8.8-5.1,20-14.4,21.7c11.9-1.7,21-12,20.9-24.3
            c0-9.8-5.9-18.3-14.3-22.2C86.3,29.5,86,33.3,85.2,36.9z"
        />
        <path
            fill="#F7901E"
            d="M77.8,72.4c-1.6,0.7-3.1,1.1-4.6,3.3c-1.6,2.2-2.1,3.6-2.7,6.5c0,1.5,0.9,1.2,5.6,1.2
            c16.3-0.1,29.5-13.4,29.5-29.7C105.5,41,97.4,30.1,86.1,26c1.2,0.6,2.4,1.4,3.6,2.3c5.1,4,8.4,9.9,9.3,16.3
            c0.9,6.6-1,13.4-5.1,18.6C90.3,67.6,83.8,72.3,77.8,72.4z"
        />
        <circle
            fill="#F7901E"
            cx="84.1"
            cy="55.2"
            r="6.2"
        />
        <path
            fill="url(#logo-pl-gradient_3_)"
            d="M69.3,85.2l-0.9,1.2c-3.1,4-7.8,6.6-12.8,7.3c-8.8,1.2-20-5-21.7-14.4c1.7,11.9,12,21,24.4,20.9
            c9.8-0.1,18.3-5.9,22.1-14.3C76.6,86.3,72.9,86,69.3,85.2z"
        />
        <path
            fill="#32325D"
            d="M33.8,77.8c-0.7-1.6-1.1-3.1-3.3-4.6c-2.2-1.6-3.6-2.1-6.5-2.6c-1.5,0-1.2,0.9-1.2,5.6
            c0.1,16.3,13.4,29.5,29.8,29.4c12.7-0.1,23.6-8.2,27.7-19.5c-0.6,1.2-1.4,2.4-2.3,3.6c-4,5.1-9.9,8.4-16.3,9.3
            c-6.6,0.9-13.4-1-18.6-5.1C38.6,90.3,33.9,83.8,33.8,77.8z"
        />
        <circle
            fill="#32325D"
            cx="50.9"
            cy="84.2"
            r="6.2"
        />
        <path
            fill="url(#logo-pl-gradient_4_)"
            d="M37.6,20.5l0.9-1.2c3.1-4,7.7-6.7,12.8-7.4c8.8-1.2,21.3,5,23.1,14.3C72.5,14.3,62.2,5.3,49.9,5.4
            c-9.8,0.1-19.6,6-23.4,14.4C30.2,19.4,34,19.6,37.6,20.5z"
        />
        <path
            fill="#32325D"
            d="M73.1,27.7c0.7,1.6,1.2,3.1,3.3,4.6c2.2,1.6,3.7,2.1,6.5,2.6c1.5,0,1.2-0.9,1.2-5.6C83.9,13,70.6-0.2,54.2,0
            C41.5,0.1,30.7,8.3,26.6,19.6c0.6-1.2,1.4-2.4,2.3-3.6c4-5.1,9.8-8.5,16.2-9.4c6.6-0.9,13.4,0.9,18.7,5
            C68.3,15.2,73,21.7,73.1,27.7z"
        />
        <circle
            fill="#32325D"
            cx="55.9"
            cy="21.4"
            r="6.2"
        />
        <path
            fill="#F7901E"
            d="M398.8,72.1h18.8c0.2,1.4,0.2,2.8,0.2,4c0,2.6-0.2,4.2-0.2,4.2h-29V28c1.7-0.1,3.4-0.2,5-0.2
            c3.1,0,5.2,0.2,5.2,0.2V72.1z M430.3,66c0,5.3,3.7,7.3,9,7.3c6.4,0,10.7-1.9,10.7-1.9c1.9,3.5,2.4,7.2,2.4,7.2s-4.7,2.1-13.1,2.1
            c-13.1,0-18.4-6-18.4-18c0-11.8,6.1-17.6,17-17.6c10.2,0,16.1,6.5,16.1,16.8c0,2.5-0.3,4.1-0.3,4.1H430.3L430.3,66z M430.4,59.3
            h13.7v-1c0-2.7-1.7-5.8-6.3-5.8C432.6,52.5,430.5,55.3,430.4,59.3L430.4,59.3z M458.7,69.9c0-6.8,3.6-10.6,13.4-10.6h7v-1.8
            c0-4-2.8-4.8-6.6-4.8c-5.1,0-10.1,1.4-10.1,1.4s-1.1-3.9-0.7-7.5c0,0,3.8-1.4,10.8-1.4c10.6,0,16,3,16,11.9v23.2
            c0,0-8.7,0.3-17.1,0.3C462.2,80.5,458.7,76.7,458.7,69.9L458.7,69.9z M479.1,73.7v-8.1l-6.3-0.1c-4.5-0.1-5,2.2-5,4.3
            c0,2.2,0.7,4,4.3,4C475.2,73.9,479.1,73.7,479.1,73.7z M517,45.4c0,0,0.2,1.7,0.2,3.9c0,1.1-0.1,2.4-0.2,3.6h-10.3v27.3
            c0,0-2.1,0.2-4.9,0.2c-1.4,0-3-0.1-4.5-0.2V45.6c0,0,3.8-0.5,9.8-0.5C512.6,45.2,517,45.4,517,45.4z M530.6,52.9v27.3
            c0,0-2.1,0.2-4.8,0.2c-1.4,0-3-0.1-4.6-0.2V45.6c0,0,6.5-0.5,14.2-0.5c12.2,0,16,3.9,16,14.7v20.3c0,0-2.1,0.2-4.8,0.2
            c-1.4,0-3-0.1-4.6-0.2V59.3c0-5-1.6-6.4-6.6-6.4L530.6,52.9L530.6,52.9z M559.8,36c0-2.2,0.2-4,0.2-4c1.5-0.1,3.1-0.2,4.5-0.2
            c2.8,0,5.1,0.2,5.1,0.2s0.2,1.7,0.2,4c0,1.1-0.1,2.4-0.2,3.6c0,0-2.2,0.2-5.1,0.2c-1.5,0-3-0.1-4.5-0.2
            C559.9,38.4,559.8,37.2,559.8,36z M569.5,80.2c-1.5,0.1-3.1,0.2-4.4,0.2c-2.8,0-4.9-0.2-4.9-0.2V45.4c1.6-0.1,3.1-0.2,4.5-0.2
            c2.8,0,4.8,0.2,4.8,0.2L569.5,80.2L569.5,80.2z M588.1,52.9v27.3c0,0-2.1,0.2-4.8,0.2c-1.4,0-3-0.1-4.6-0.2V45.6
            c0,0,6.5-0.5,14.2-0.5c12.2,0,16,3.9,16,14.7v20.3c0,0-2.1,0.2-4.8,0.2c-1.4,0-3-0.1-4.6-0.2V59.3c0-5-1.6-6.4-6.6-6.4L588.1,52.9
            L588.1,52.9z M631.2,80.4c-11.3,0-16.1-5.3-16.1-18c0-9.9,5.5-17.2,16.8-17.2c8.3,0,16.1,0.2,16.1,0.2V77
            c0,11.3-4.4,18.3-17.1,18.3c-8,0-13.3-2.4-13.3-2.4s0.5-3.7,2.4-7.2c0,0,4.9,2.2,10.9,2.2c5.3,0,7.7-2.7,7.7-7.9
            C638.6,80,634.6,80.4,631.2,80.4L631.2,80.4z M638.6,73.1V52.8h-6c-5.4,0-7.9,4.2-7.9,9.5c0,7.2,1.8,10.8,7.2,10.8
            C631.9,73.1,638.6,73.1,638.6,73.1z"
        />
    </g>
    <g
        class="logo-pl-tagline"
        fill="#32325D"
    >
        <path d="M132.9,133.9v-18.6h2.2V132h8.2v2h-10.4V133.9z" />
        <path
            d="M145.3,116.3c0-0.5,0.1-0.8,0.4-1.1c0.2-0.2,0.5-0.3,0.9-0.3c0.3,0,0.6,0.1,0.9,0.3s0.4,0.6,0.4,1.1
            s-0.1,0.8-0.4,1.1c-0.2,0.2-0.5,0.3-0.9,0.3s-0.7-0.1-0.9-0.3C145.4,117.1,145.3,116.7,145.3,116.3z M147.6,133.9h-2.1V120h2.1
            V133.9z"
        />
        <path
            d="M154.5,133.9l-5.3-13.9h2.3l3,8.3c0.7,1.9,1.1,3.2,1.2,3.8h0.1c0.1-0.4,0.4-1.4,0.9-2.8
            c0.5-1.4,1.6-4.5,3.3-9.2h2.3L157,134L154.5,133.9L154.5,133.9z"
        />
        <path
            d="M169.8,134.2c-2.1,0-3.7-0.6-4.9-1.9s-1.8-3-1.8-5.2s0.6-4,1.7-5.3s2.6-2,4.4-2c1.7,0,3.1,0.6,4.1,1.7
            s1.5,2.7,1.5,4.5v1.3h-9.6c0,1.6,0.5,2.9,1.2,3.7s1.9,1.3,3.3,1.3c1.5,0,3-0.3,4.4-0.9v1.9c-0.7,0.3-1.4,0.6-2.1,0.7
            C171.5,134.1,170.7,134.2,169.8,134.2z M169.2,121.5c-1.1,0-2,0.4-2.7,1.1s-1.1,1.7-1.2,3h7.3c0-1.3-0.3-2.3-0.9-3.1
            C171.2,121.9,170.3,121.5,169.2,121.5z"
        />
        <path
            d="M196.1,127c0,2.3-0.6,4-1.7,5.3c-1.1,1.3-2.7,1.9-4.7,1.9c-1.2,0-2.3-0.3-3.3-0.9s-1.7-1.4-2.2-2.5
            s-0.8-2.4-0.8-3.8c0-2.3,0.6-4,1.7-5.3c1.1-1.3,2.7-1.9,4.7-1.9c1.9,0,3.5,0.6,4.6,1.9S196.1,124.8,196.1,127z M185.5,127
            c0,1.8,0.4,3.1,1.1,4.1s1.8,1.4,3.1,1.4s2.4-0.5,3.1-1.4c0.7-0.9,1.1-2.3,1.1-4.1c0-1.8-0.4-3.1-1.1-4c-0.7-0.9-1.8-1.4-3.2-1.4
            s-2.4,0.5-3.1,1.4S185.5,125.2,185.5,127z"
        />
        <path
            d="M208.8,133.9v-9c0-1.1-0.3-2-0.8-2.5s-1.3-0.8-2.4-0.8c-1.5,0-2.5,0.4-3.2,1.2s-1,2.1-1,3.9v7.3h-2.1v-14h1.7
            l0.3,1.9h0.1c0.4-0.7,1-1.2,1.8-1.6s1.6-0.6,2.6-0.6c1.7,0,2.9,0.4,3.8,1.2c0.8,0.8,1.3,2.1,1.3,3.9v9.1L208.8,133.9L208.8,133.9z"
        />
        <path d="M216.7,133.9h-2.1v-19.8h2.1V133.9z" />
        <path
            d="M220.5,116.3c0-0.5,0.1-0.8,0.4-1.1c0.2-0.2,0.5-0.3,0.9-0.3c0.3,0,0.6,0.1,0.9,0.3s0.4,0.6,0.4,1.1
            s-0.1,0.8-0.4,1.1c-0.2,0.2-0.5,0.3-0.9,0.3s-0.7-0.1-0.9-0.3C220.6,117.1,220.5,116.7,220.5,116.3z M222.7,133.9h-2.1V120h2.1
            V133.9z"
        />
        <path
            d="M236.2,133.9v-9c0-1.1-0.3-2-0.8-2.5s-1.3-0.8-2.4-0.8c-1.5,0-2.5,0.4-3.2,1.2s-1,2.1-1,3.9v7.3h-2.1v-14h1.7
            l0.3,1.9h0.1c0.4-0.7,1-1.2,1.8-1.6s1.6-0.6,2.6-0.6c1.7,0,2.9,0.4,3.8,1.2c0.8,0.8,1.3,2.1,1.3,3.9v9.1L236.2,133.9L236.2,133.9z"
        />
        <path
            d="M247.9,134.2c-2.1,0-3.7-0.6-4.9-1.9s-1.8-3-1.8-5.2s0.6-4,1.7-5.3s2.6-2,4.4-2c1.7,0,3.1,0.6,4.1,1.7
            s1.5,2.7,1.5,4.5v1.3h-9.6c0,1.6,0.5,2.9,1.2,3.7s1.9,1.3,3.3,1.3c1.5,0,3-0.3,4.4-0.9v1.9c-0.7,0.3-1.4,0.6-2.1,0.7
            C249.6,134.1,248.8,134.2,247.9,134.2z M247.3,121.5c-1.1,0-2,0.4-2.7,1.1s-1.1,1.7-1.2,3h7.3c0-1.3-0.3-2.3-0.9-3.1
            C249.3,121.9,248.4,121.5,247.3,121.5z"
        />
        <path
            d="M271.2,130.1c0,1.3-0.5,2.3-1.4,3s-2.3,1.1-4.1,1.1c-1.8,0-3.3-0.3-4.3-0.9v-2c0.7,0.3,1.4,0.6,2.2,0.8
            s1.5,0.3,2.2,0.3c1.1,0,1.9-0.2,2.5-0.5c0.6-0.4,0.9-0.9,0.9-1.6c0-0.5-0.2-1-0.7-1.4s-1.4-0.8-2.7-1.4c-1.3-0.5-2.2-0.9-2.8-1.3
            c-0.5-0.4-1-0.8-1.2-1.2s-0.4-1-0.4-1.6c0-1.1,0.5-2,1.4-2.7s2.2-1,3.8-1c1.5,0,3,0.3,4.4,0.9l-0.7,1.7c-1.4-0.6-2.7-0.9-3.8-0.9
            c-1,0-1.8,0.2-2.3,0.5s-0.8,0.7-0.8,1.3c0,0.4,0.1,0.7,0.3,1s0.5,0.5,0.9,0.7s1.2,0.6,2.4,1c1.7,0.6,2.8,1.2,3.3,1.8
            S271.2,129.2,271.2,130.1z"
        />
        <path
            d="M280.5,134.2c-0.9,0-1.7-0.2-2.5-0.5c-0.7-0.3-1.4-0.8-1.9-1.5H276c0.1,0.8,0.2,1.6,0.2,2.3v5.7h-2.1V120h1.7
            l0.3,1.9h0.1c0.5-0.8,1.2-1.3,1.9-1.7s1.5-0.5,2.5-0.5c1.8,0,3.3,0.6,4.3,1.9s1.5,3,1.5,5.3s-0.5,4.1-1.5,5.3
            C283.8,133.6,282.3,134.2,280.5,134.2z M280.2,121.6c-1.4,0-2.5,0.4-3.1,1.2s-1,2-1,3.8v0.5c0,2,0.3,3.4,1,4.2s1.7,1.3,3.1,1.3
            c1.2,0,2.1-0.5,2.8-1.5s1-2.3,1-4s-0.3-3.1-1-4C282.4,122,281.5,121.6,280.2,121.6z"
        />
        <path
            d="M295.3,134.2c-2.1,0-3.7-0.6-4.9-1.9s-1.8-3-1.8-5.2s0.6-4,1.7-5.3s2.6-2,4.4-2c1.7,0,3.1,0.6,4.1,1.7
            s1.5,2.7,1.5,4.5v1.3h-9.6c0,1.6,0.5,2.9,1.2,3.7s1.9,1.3,3.3,1.3c1.5,0,3-0.3,4.4-0.9v1.9c-0.7,0.3-1.4,0.6-2.1,0.7
            C297,134.1,296.2,134.2,295.3,134.2z M294.7,121.5c-1.1,0-2,0.4-2.7,1.1s-1.1,1.7-1.2,3h7.3c0-1.3-0.3-2.3-0.9-3.1
            C296.7,121.9,295.8,121.5,294.7,121.5z"
        />
        <path
            d="M309,134.2c-2,0-3.6-0.6-4.7-1.9c-1.1-1.2-1.7-3-1.7-5.3s0.6-4.1,1.7-5.4s2.7-1.9,4.8-1.9c0.7,0,1.3,0.1,2,0.2
            s1.2,0.3,1.6,0.5l-0.6,1.8c-0.5-0.2-1-0.3-1.5-0.5c-0.6-0.1-1-0.2-1.5-0.2c-2.8,0-4.2,1.8-4.2,5.4c0,1.7,0.3,3,1,3.9
            s1.7,1.4,3.1,1.4c1.2,0,2.3-0.3,3.6-0.7v1.9C311.6,134,310.4,134.2,309,134.2z"
        />
        <path
            d="M315.1,116.3c0-0.5,0.1-0.8,0.4-1.1c0.2-0.2,0.5-0.3,0.9-0.3c0.3,0,0.6,0.1,0.9,0.3s0.4,0.6,0.4,1.1
            s-0.1,0.8-0.4,1.1c-0.2,0.2-0.5,0.3-0.9,0.3s-0.7-0.1-0.9-0.3C315.2,117.1,315.1,116.7,315.1,116.3z M317.3,133.9h-2.1V120h2.1
            V133.9z"
        />
        <path
            d="M329.8,133.9l-0.4-2h-0.1c-0.7,0.9-1.4,1.5-2.1,1.8s-1.6,0.5-2.6,0.5c-1.4,0-2.5-0.4-3.2-1.1
            c-0.8-0.7-1.2-1.7-1.2-3c0-2.8,2.2-4.3,6.7-4.4l2.4-0.1v-0.9c0-1.1-0.2-1.9-0.7-2.4s-1.2-0.8-2.3-0.8c-1.2,0-2.5,0.4-3.9,1.1
            l-0.6-1.6c0.7-0.4,1.4-0.7,2.3-0.9c0.8-0.2,1.6-0.3,2.5-0.3c1.7,0,2.9,0.4,3.7,1.1c0.8,0.7,1.2,1.9,1.2,3.5v9.5L329.8,133.9
            L329.8,133.9z M325,132.5c1.3,0,2.3-0.4,3.1-1.1c0.8-0.7,1.1-1.7,1.1-3v-1.3l-2.1,0.1c-1.7,0.1-2.9,0.3-3.6,0.8
            c-0.7,0.5-1.1,1.2-1.1,2.2c0,0.8,0.2,1.3,0.7,1.7C323.6,132.3,324.2,132.5,325,132.5z"
        />
        <path d="M337.2,133.9h-2.1v-19.8h2.1V133.9z"/>
        <path
            d="M353.2,134.2c-2.1,0-3.7-0.6-4.9-1.9c-1.2-1.3-1.8-3-1.8-5.2s0.6-4,1.7-5.3s2.6-2,4.4-2c1.7,0,3.1,0.6,4.1,1.7
            s1.5,2.7,1.5,4.5v1.3h-9.6c0,1.6,0.5,2.9,1.2,3.7c0.8,0.8,1.9,1.3,3.3,1.3c1.5,0,3-0.3,4.4-0.9v1.9c-0.7,0.3-1.4,0.6-2.1,0.7
            C354.9,134.1,354.1,134.2,353.2,134.2z M352.6,121.5c-1.1,0-2,0.4-2.7,1.1s-1.1,1.7-1.2,3h7.3c0-1.3-0.3-2.3-0.9-3.1
            C354.6,121.9,353.7,121.5,352.6,121.5z"
        />
        <path
            d="M370.8,132.1h-0.1c-1,1.4-2.4,2.1-4.4,2.1c-1.8,0-3.2-0.6-4.2-1.9c-1-1.2-1.5-3-1.5-5.3s0.5-4.1,1.5-5.3
            s2.4-1.9,4.2-1.9c1.9,0,3.3,0.7,4.3,2.1h0.2l-0.1-1l-0.1-1v-5.7h2.1V134H371L370.8,132.1z M366.6,132.4c1.4,0,2.5-0.4,3.1-1.2
            s1-2,1-3.8V127c0-2-0.3-3.4-1-4.2c-0.7-0.8-1.7-1.3-3.1-1.3c-1.2,0-2.2,0.5-2.8,1.4c-0.7,1-1,2.3-1,4.1c0,1.8,0.3,3.1,1,4
            S365.3,132.4,366.6,132.4z"
        />
        <path
            d="M378.7,120v9c0,1.1,0.3,2,0.8,2.5s1.3,0.8,2.4,0.8c1.5,0,2.5-0.4,3.2-1.2s1-2.1,1-3.9V120h2.1v13.9h-1.7
            l-0.3-1.9H386c-0.4,0.7-1,1.2-1.8,1.6c-0.8,0.4-1.6,0.5-2.6,0.5c-1.7,0-3-0.4-3.8-1.2s-1.3-2.1-1.3-3.9v-9H378.7z"
        />
        <path
            d="M397.6,134.2c-2,0-3.6-0.6-4.7-1.9c-1.1-1.2-1.7-3-1.7-5.3s0.6-4.1,1.7-5.4s2.7-1.9,4.8-1.9
            c0.7,0,1.3,0.1,2,0.2s1.2,0.3,1.6,0.5l-0.6,1.8c-0.5-0.2-1-0.3-1.5-0.5c-0.5-0.1-1-0.2-1.5-0.2c-2.8,0-4.2,1.8-4.2,5.4
            c0,1.7,0.3,3,1,3.9c0.7,0.9,1.7,1.4,3.1,1.4c1.2,0,2.3-0.3,3.6-0.7v1.9C400.2,134,399,134.2,397.6,134.2z"
        />
        <path
            d="M412.4,133.9l-0.4-2h-0.1c-0.7,0.9-1.4,1.5-2.1,1.8s-1.6,0.5-2.6,0.5c-1.4,0-2.5-0.4-3.2-1.1
            c-0.8-0.7-1.2-1.7-1.2-3c0-2.8,2.2-4.3,6.7-4.4l2.4-0.1v-0.9c0-1.1-0.2-1.9-0.7-2.4s-1.2-0.8-2.3-0.8c-1.2,0-2.5,0.4-3.9,1.1
            l-0.6-1.6c0.7-0.4,1.4-0.7,2.3-0.9c0.8-0.2,1.6-0.3,2.5-0.3c1.7,0,2.9,0.4,3.7,1.1c0.8,0.7,1.2,1.9,1.2,3.5v9.5L412.4,133.9
            L412.4,133.9z M407.7,132.5c1.3,0,2.3-0.4,3.1-1.1c0.8-0.7,1.1-1.7,1.1-3v-1.3l-2.1,0.1c-1.7,0.1-2.9,0.3-3.6,0.8
            c-0.7,0.5-1.1,1.2-1.1,2.2c0,0.8,0.2,1.3,0.7,1.7C406.2,132.3,406.8,132.5,407.7,132.5z"
        />
        <path
            d="M422.3,132.5c0.4,0,0.7,0,1.1-0.1c0.3-0.1,0.6-0.1,0.8-0.2v1.6c-0.2,0.1-0.6,0.2-1,0.3s-0.8,0.1-1.2,0.1
            c-2.7,0-4-1.4-4-4.3v-8.3h-2v-1l2-0.9l0.9-3h1.2v3.2h4v1.6h-4v8.2c0,0.8,0.2,1.5,0.6,1.9S421.6,132.5,422.3,132.5z"
        />
        <path
            d="M426.2,116.3c0-0.5,0.1-0.8,0.4-1.1c0.2-0.2,0.5-0.3,0.9-0.3c0.3,0,0.6,0.1,0.9,0.3s0.4,0.6,0.4,1.1
            s-0.1,0.8-0.4,1.1c-0.2,0.2-0.5,0.3-0.9,0.3s-0.7-0.1-0.9-0.3C426.3,117.1,426.2,116.7,426.2,116.3z M428.5,133.9h-2.1V120h2.1
            V133.9z"
        />
        <path
            d="M444.4,127c0,2.3-0.6,4-1.7,5.3s-2.7,1.9-4.7,1.9c-1.2,0-2.3-0.3-3.3-0.9s-1.7-1.4-2.2-2.5s-0.8-2.4-0.8-3.8
            c0-2.3,0.6-4,1.7-5.3s2.7-1.9,4.7-1.9c1.9,0,3.5,0.6,4.6,1.9C443.8,123,444.4,124.8,444.4,127z M433.8,127c0,1.8,0.4,3.1,1.1,4.1
            s1.8,1.4,3.1,1.4s2.4-0.5,3.1-1.4s1.1-2.3,1.1-4.1c0-1.8-0.4-3.1-1.1-4s-1.8-1.4-3.2-1.4c-1.4,0-2.4,0.5-3.1,1.4
            S433.8,125.2,433.8,127z"
        />
        <path
            d="M457,133.9v-9c0-1.1-0.3-2-0.8-2.5s-1.3-0.8-2.4-0.8c-1.5,0-2.5,0.4-3.2,1.2s-1,2.1-1,3.9v7.3h-2.1v-14h1.7
            l0.3,1.9h0.1c0.4-0.7,1-1.2,1.8-1.6s1.6-0.6,2.6-0.6c1.7,0,2.9,0.4,3.8,1.2c0.8,0.8,1.3,2.1,1.3,3.9v9.1L457,133.9L457,133.9z"
        />
        <path
            d="M475.4,119.8c0.6,0,1.2,0.1,1.7,0.2l-0.3,2c-0.6-0.1-1.1-0.2-1.5-0.2c-1.1,0-2.1,0.5-2.9,1.4s-1.2,2.1-1.2,3.4
            v7.5h-2.1V120h1.7l0.2,2.6h0.1c0.5-0.9,1.1-1.6,1.9-2.1S474.6,119.8,475.4,119.8z"
        />
        <path
            d="M485,134.2c-2.1,0-3.7-0.6-4.9-1.9c-1.2-1.3-1.8-3-1.8-5.2s0.6-4,1.7-5.3s2.6-2,4.4-2c1.7,0,3.1,0.6,4.1,1.7
            s1.5,2.7,1.5,4.5v1.3h-9.6c0,1.6,0.5,2.9,1.2,3.7c0.8,0.8,1.9,1.3,3.3,1.3c1.5,0,3-0.3,4.4-0.9v1.9c-0.7,0.3-1.4,0.6-2.1,0.7
            C486.7,134.1,485.9,134.2,485,134.2z M484.4,121.5c-1.1,0-2,0.4-2.7,1.1s-1.1,1.7-1.2,3h7.3c0-1.3-0.3-2.3-0.9-3.1
            C486.4,121.9,485.5,121.5,484.4,121.5z"
        />
        <path d="M495.2,133.9h-2.1v-19.8h2.1V133.9z"/>
        <path
            d="M507.7,133.9l-0.4-2h-0.1c-0.7,0.9-1.4,1.5-2.1,1.8s-1.6,0.5-2.6,0.5c-1.4,0-2.5-0.4-3.2-1.1
            c-0.8-0.7-1.2-1.7-1.2-3c0-2.8,2.2-4.3,6.7-4.4l2.4-0.1v-0.9c0-1.1-0.2-1.9-0.7-2.4s-1.2-0.8-2.3-0.8c-1.2,0-2.5,0.4-3.9,1.1
            l-0.6-1.6c0.7-0.4,1.4-0.7,2.3-0.9c0.8-0.2,1.6-0.3,2.5-0.3c1.7,0,2.9,0.4,3.7,1.1c0.8,0.7,1.2,1.9,1.2,3.5v9.5L507.7,133.9
            L507.7,133.9z M502.9,132.5c1.3,0,2.3-0.4,3.1-1.1c0.8-0.7,1.1-1.7,1.1-3v-1.3l-2.1,0.1c-1.7,0.1-2.9,0.3-3.6,0.8
            c-0.7,0.5-1.1,1.2-1.1,2.2c0,0.8,0.2,1.3,0.7,1.7C501.5,132.3,502.1,132.5,502.9,132.5z"
        />
        <path
            d="M517.5,132.5c0.4,0,0.7,0,1.1-0.1c0.3-0.1,0.6-0.1,0.8-0.2v1.6c-0.2,0.1-0.6,0.2-1,0.3s-0.8,0.1-1.2,0.1
            c-2.7,0-4-1.4-4-4.3v-8.3h-2v-1l2-0.9l0.9-3h1.2v3.2h4v1.6h-4v8.2c0,0.8,0.2,1.5,0.6,1.9S516.8,132.5,517.5,132.5z"
        />
        <path
            d="M527.5,134.2c-2.1,0-3.7-0.6-4.9-1.9c-1.2-1.3-1.8-3-1.8-5.2s0.6-4,1.7-5.3c1.1-1.3,2.6-2,4.4-2
            c1.7,0,3.1,0.6,4.1,1.7s1.5,2.7,1.5,4.5v1.3H523c0,1.6,0.5,2.9,1.2,3.7c0.8,0.8,1.9,1.3,3.3,1.3c1.5,0,3-0.3,4.4-0.9v1.9
            c-0.7,0.3-1.4,0.6-2.1,0.7C529.3,134.1,528.5,134.2,527.5,134.2z M526.9,121.5c-1.1,0-2,0.4-2.7,1.1s-1.1,1.7-1.2,3h7.3
            c0-1.3-0.3-2.3-0.9-3.1C528.9,121.9,528,121.5,526.9,121.5z"
        />
        <path
            d="M545.1,132.1L545.1,132.1c-1.1,1.4-2.5,2.1-4.5,2.1c-1.8,0-3.2-0.6-4.2-1.9c-1-1.2-1.5-3-1.5-5.3
            s0.5-4.1,1.5-5.3s2.4-1.9,4.2-1.9c1.9,0,3.3,0.7,4.3,2.1h0.2l-0.1-1l-0.1-1v-5.7h2.1V134h-1.7L545.1,132.1z M540.9,132.4
            c1.4,0,2.5-0.4,3.1-1.2s1-2,1-3.8V127c0-2-0.3-3.4-1-4.2c-0.7-0.8-1.7-1.3-3.1-1.3c-1.2,0-2.2,0.5-2.8,1.4c-0.7,1-1,2.3-1,4.1
            c0,1.8,0.3,3.1,1,4S539.6,132.4,540.9,132.4z"
        />
        <path
            d="M566.2,130.1c0,1.3-0.5,2.3-1.4,3s-2.3,1.1-4.1,1.1s-3.3-0.3-4.3-0.9v-2c0.7,0.3,1.4,0.6,2.2,0.8
            s1.5,0.3,2.2,0.3c1.1,0,1.9-0.2,2.5-0.5c0.6-0.4,0.9-0.9,0.9-1.6c0-0.5-0.2-1-0.7-1.4s-1.4-0.8-2.7-1.4c-1.3-0.5-2.2-0.9-2.8-1.3
            c-0.5-0.4-1-0.8-1.2-1.2c-0.3-0.5-0.4-1-0.4-1.6c0-1.1,0.5-2,1.4-2.7s2.2-1,3.8-1c1.5,0,3,0.3,4.4,0.9l-0.7,1.7
            c-1.4-0.6-2.7-0.9-3.8-0.9c-1,0-1.8,0.2-2.3,0.5s-0.8,0.7-0.8,1.3c0,0.4,0.1,0.7,0.3,1s0.5,0.5,0.9,0.7s1.2,0.6,2.4,1
            c1.7,0.6,2.8,1.2,3.3,1.8C565.9,128.5,566.2,129.2,566.2,130.1z"
        />
        <path
            d="M574.9,134.2c-2.1,0-3.7-0.6-4.9-1.9c-1.2-1.3-1.8-3-1.8-5.2s0.6-4,1.7-5.3c1.1-1.3,2.6-2,4.4-2
            c1.7,0,3.1,0.6,4.1,1.7s1.5,2.7,1.5,4.5v1.3h-9.6c0,1.6,0.5,2.9,1.2,3.7c0.8,0.8,1.9,1.3,3.3,1.3c1.5,0,3-0.3,4.4-0.9v1.9
            c-0.7,0.3-1.4,0.6-2.1,0.7C576.6,134.1,575.8,134.2,574.9,134.2z M574.3,121.5c-1.1,0-2,0.4-2.7,1.1s-1.1,1.7-1.2,3h7.3
            c0-1.3-0.3-2.3-0.9-3.1C576.3,121.9,575.4,121.5,574.3,121.5z"
        />
        <path
            d="M589.4,119.8c0.6,0,1.2,0.1,1.7,0.2l-0.3,2c-0.6-0.1-1.1-0.2-1.5-0.2c-1.1,0-2.1,0.5-2.9,1.4
            c-0.8,0.9-1.2,2.1-1.2,3.4v7.5H583V120h1.7l0.2,2.6h0.1c0.5-0.9,1.1-1.6,1.9-2.1S588.5,119.8,589.4,119.8z"
        />
        <path
            d="M596.1,133.9l-5.3-13.9h2.3l3,8.3c0.7,1.9,1.1,3.2,1.2,3.8h0.1c0.1-0.4,0.4-1.4,0.9-2.8
            c0.5-1.4,1.6-4.5,3.3-9.2h2.3l-5.3,13.9L596.1,133.9L596.1,133.9z"
        />
        <path
            d="M605.4,116.3c0-0.5,0.1-0.8,0.4-1.1c0.2-0.2,0.5-0.3,0.9-0.3c0.3,0,0.6,0.1,0.9,0.3s0.4,0.6,0.4,1.1
            s-0.1,0.8-0.4,1.1c-0.2,0.2-0.5,0.3-0.9,0.3s-0.7-0.1-0.9-0.3C605.5,117.1,605.4,116.7,605.4,116.3z M607.6,133.9h-2.1V120h2.1
            V133.9z"
        />
        <path
            d="M617.1,134.2c-2,0-3.6-0.6-4.7-1.9c-1.1-1.2-1.7-3-1.7-5.3s0.6-4.1,1.7-5.4c1.1-1.3,2.7-1.9,4.8-1.9
            c0.7,0,1.3,0.1,2,0.2s1.2,0.3,1.6,0.5l-0.6,1.8c-0.5-0.2-1-0.3-1.5-0.5c-0.5-0.1-1-0.2-1.5-0.2c-2.8,0-4.2,1.8-4.2,5.4
            c0,1.7,0.3,3,1,3.9c0.7,0.9,1.7,1.4,3.1,1.4c1.2,0,2.3-0.3,3.6-0.7v1.9C619.7,134,618.5,134.2,617.1,134.2z"
        />
        <path
            d="M629.2,134.2c-2.1,0-3.7-0.6-4.9-1.9c-1.2-1.3-1.8-3-1.8-5.2s0.6-4,1.7-5.3c1.1-1.3,2.6-2,4.4-2
            c1.7,0,3.1,0.6,4.1,1.7s1.5,2.7,1.5,4.5v1.3h-9.6c0,1.6,0.5,2.9,1.2,3.7c0.8,0.8,1.9,1.3,3.3,1.3c1.5,0,3-0.3,4.4-0.9v1.9
            c-0.7,0.3-1.4,0.6-2.1,0.7C631,134.1,630.2,134.2,629.2,134.2z M628.6,121.5c-1.1,0-2,0.4-2.7,1.1s-1.1,1.7-1.2,3h7.3
            c0-1.3-0.3-2.3-0.9-3.1C630.6,121.9,629.7,121.5,628.6,121.5z"
        />
        <path
            d="M646.3,130.1c0,1.3-0.5,2.3-1.4,3s-2.3,1.1-4.1,1.1s-3.3-0.3-4.3-0.9v-2c0.7,0.3,1.4,0.6,2.2,0.8
            s1.5,0.3,2.2,0.3c1.1,0,1.9-0.2,2.5-0.5c0.6-0.4,0.9-0.9,0.9-1.6c0-0.5-0.2-1-0.7-1.4s-1.4-0.8-2.7-1.4c-1.3-0.5-2.2-0.9-2.8-1.3
            c-0.5-0.4-1-0.8-1.2-1.2c-0.3-0.5-0.4-1-0.4-1.6c0-1.1,0.5-2,1.4-2.7s2.2-1,3.8-1c1.5,0,3,0.3,4.4,0.9l-0.7,1.7
            c-1.4-0.6-2.7-0.9-3.8-0.9c-1,0-1.8,0.2-2.3,0.5s-0.8,0.7-0.8,1.3c0,0.4,0.1,0.7,0.3,1s0.5,0.5,0.9,0.7s1.2,0.6,2.4,1
            c1.7,0.6,2.8,1.2,3.3,1.8C646,128.5,646.3,129.2,646.3,130.1z"
        />
    </g>
</svg>
