<svg id="ot" xmlns="http://www.w3.org/2000/svg" viewBox="0 0 77.06 74.33"><defs><style>.cls-1{fill:#2dce89}</style></defs><path class="cls-1" d="M76 30.64a6.5 6.5 0 00-5-1.77A15 15 0 0065.66 30a1.77 1.77 0 00-.94.59L33.85 61.42a2 2 0 00-.71 1.31l-1.9 10.05V73a2.44 2.44 0 002.5 2.5l11.4-2.27a3 3 0 001.23-.66l31-30.79a2.07 2.07 0 00.65-.9l.13-.33c.34-1.55 1.19-7-2.15-9.91zM36.76 69.77l1.18-5.54L67.88 34.3h.21c2.11-.71 3.88-.77 4.63-.17 1.11.88.94 3.31.88 4.19v.3l-30 29.79z" transform="translate(-1.44 -2.31)"/><path class="cls-1" d="M26.85 71.85C12 66.33 10.7 62.93 10.67 62c-.09-2.16 6-5 8.85-6.32l1.07-.5c.74-.34 1.91-.79 3.27-1.32 6.33-2.42 14.2-5.44 13.78-10.5-.34-4.18-5.78-7-18.76-9.63-7.46-1.51-12.12-3.83-12.47-6.19-.41-2.62 4.09-6.88 11.4-10.83C32.2 8.93 50.69 5.26 54 8.19a2.44 2.44 0 001.79.62 2.48 2.48 0 001.5-4.32c-6.39-5.68-28.67.76-41.82 7.87-6.9 3.72-14.91 9.5-13.96 15.91.72 4.84 6.07 8.22 16.38 10.33 13.65 2.8 14.8 5.19 14.82 5.19s-.29 1.51-10.62 5.47c-1.45.56-2.7 1-3.6 1.46l-1 .49c-5.32 2.47-11.94 5.55-11.72 11 .2 5 6.19 9.37 19.41 14.27a2.34 2.34 0 00.86.16A2.48 2.48 0 0028.32 75a2.49 2.49 0 00-1.47-3.18z" transform="translate(-1.44 -2.31)"/></svg>