<svg width="35" height="37" viewBox="0 0 35 37" fill="none" xmlns="http://www.w3.org/2000/svg">
<path fill-rule="evenodd" clip-rule="evenodd" d="M34.4614 8.79858C34.4614 8.2463 34.0137 7.79858 33.4614 7.79858H11.4614C10.9091 7.79858 10.4614 8.2463 10.4614 8.79858V30.7986C10.4614 31.3509 10.9091 31.7986 11.4614 31.7986H21.0994C21.3333 31.7986 21.5598 31.8806 21.7396 32.0304L27.0212 36.4318C27.6726 36.9745 28.6614 36.5114 28.6614 35.6635V32.7986C28.6614 32.2463 29.1091 31.7986 29.6614 31.7986H33.4614C34.0137 31.7986 34.4614 31.3509 34.4614 30.7986V8.79858Z" fill="#CBF4F9"/>
<path d="M21.2468 22.0801C21.3715 22.083 21.4955 22.0596 21.6113 22.0115C21.7271 21.9635 21.8323 21.8916 21.9205 21.8004C22.0088 21.7091 22.0782 21.6004 22.1247 21.4806C22.1712 21.3609 22.1938 21.2326 22.1911 21.1036V1.23944C22.1938 1.11043 22.1712 0.982192 22.1247 0.862444C22.0782 0.742696 22.0088 0.633922 21.9205 0.542678C21.8323 0.451433 21.7271 0.379607 21.6113 0.331527C21.4955 0.283448 21.3715 0.260111 21.2468 0.262922H1.42887C1.30412 0.260111 1.18012 0.283448 1.06432 0.331527C0.948528 0.379607 0.843345 0.451433 0.755113 0.542678C0.666881 0.633922 0.597426 0.742696 0.550934 0.862444C0.504442 0.982192 0.481876 1.11043 0.484594 1.23944V21.0171C0.492781 21.2715 0.595503 21.5128 0.771386 21.6909C0.947268 21.8689 1.18277 21.97 1.42887 21.973H4.76373V25.3105C4.76683 25.5685 4.86731 25.815 5.04373 25.9975C5.22015 26.1799 5.45854 26.2838 5.70801 26.287C5.90348 26.2681 6.09186 26.2018 6.25785 26.0934L11.3737 22.1172L21.2468 22.0801ZM5.70801 20.02H2.37714V2.21597H20.3463V20.1271L11.051 20.1518C10.8508 20.1566 10.6577 20.2289 10.5011 20.3578L6.66026 23.3533V21.0089C6.66302 20.8791 6.64022 20.7502 6.59324 20.6299C6.54626 20.5096 6.47609 20.4004 6.387 20.309C6.2979 20.2177 6.19176 20.146 6.07503 20.0985C5.9583 20.0509 5.83342 20.0284 5.70801 20.0323V20.02Z" fill="#217AB7"/>
<path d="M30.1919 4.66758H24.6975C24.448 4.67079 24.2096 4.7747 24.0332 4.95714C23.8568 5.13958 23.7563 5.38611 23.7532 5.6441C23.7505 5.77311 23.7731 5.90135 23.8196 6.0211C23.8661 6.14085 23.9355 6.24962 24.0237 6.34087C24.112 6.43211 24.2172 6.50394 24.3329 6.55202C24.4487 6.6001 24.5728 6.62343 24.6975 6.62062H29.2874V24.3381H25.4426C25.3178 24.3353 25.1938 24.3586 25.078 24.4067C24.9622 24.4548 24.857 24.5266 24.7688 24.6179C24.6806 24.7091 24.6111 24.8179 24.5646 24.9376C24.5181 25.0574 24.4956 25.1856 24.4983 25.3146V27.9352L20.514 24.5276C20.3486 24.4056 20.1514 24.3381 19.9482 24.334H11.9796C11.7294 24.3361 11.49 24.4396 11.3128 24.6221C11.1355 24.8047 11.0345 25.0518 11.0313 25.3105C11.0286 25.4399 11.0513 25.5685 11.098 25.6885C11.1448 25.8085 11.2146 25.9175 11.3032 26.0088C11.3919 26.1001 11.4976 26.1718 11.6138 26.2197C11.7301 26.2675 11.8545 26.2904 11.9796 26.287H19.5498L24.8091 30.7246C24.978 30.845 25.1777 30.9109 25.3828 30.9142C25.632 30.9099 25.8698 30.8057 26.046 30.6235C26.2222 30.4412 26.323 30.1953 26.3271 29.9376V26.2293H30.1679C30.2933 26.2355 30.4186 26.2152 30.5361 26.1696C30.6536 26.1241 30.7609 26.0543 30.8515 25.9645C30.9421 25.8747 31.0141 25.7667 31.063 25.6472C31.1119 25.5277 31.1368 25.3991 31.1361 25.2693V5.6235C31.1362 5.49621 31.1116 5.3702 31.0639 5.25286C31.0162 5.13552 30.9463 5.02921 30.8584 4.94017C30.7704 4.85113 30.6662 4.78116 30.5517 4.73435C30.4373 4.68754 30.3149 4.66484 30.1919 4.66758Z" fill="#217AB7"/>
</svg>
