<svg width="26" height="26" viewBox="0 0 26 26" fill="none" xmlns="http://www.w3.org/2000/svg">
<path d="M17.2301 8.0498C17.0151 8.26914 16.8947 8.56403 16.8947 8.87116C16.8947 9.1783 17.0151 9.47319 17.2301 9.69253L19.1075 11.5699C19.3268 11.7849 19.6217 11.9053 19.9288 11.9053C20.236 11.9053 20.5309 11.7849 20.7502 11.5699L25.1738 7.1463C25.7639 8.45014 25.9425 9.90284 25.686 11.3108C25.4294 12.7187 24.7499 14.0151 23.738 15.027C22.726 16.039 21.4297 16.7185 20.0217 16.975C18.6138 17.2316 17.1611 17.0529 15.8572 16.4629L7.74918 24.571C7.28238 25.0378 6.64926 25.3 5.98911 25.3C5.32896 25.3 4.69584 25.0378 4.22904 24.571C3.76224 24.1042 3.5 23.471 3.5 22.8109C3.5 22.1507 3.76224 21.5176 4.22904 21.0508L12.3371 12.9428C11.7471 11.6389 11.5684 10.1862 11.825 8.7783C12.0815 7.37035 12.761 6.07401 13.773 5.06205C14.7849 4.05009 16.0813 3.37057 17.4892 3.11403C18.8972 2.8575 20.3499 3.03615 21.6537 3.62616L17.2418 8.03806L17.2301 8.0498Z" fill="#D6FACF"/>
<path d="M15.2301 6.0498C15.0151 6.26914 14.8947 6.56403 14.8947 6.87116C14.8947 7.1783 15.0151 7.47319 15.2301 7.69253L17.1075 9.56993C17.3268 9.78493 17.6217 9.90535 17.9288 9.90535C18.236 9.90535 18.5309 9.78493 18.7502 9.56993L23.1738 5.1463C23.7639 6.45014 23.9425 7.90284 23.686 9.31079C23.4294 10.7187 22.7499 12.0151 21.738 13.027C20.726 14.039 19.4297 14.7185 18.0217 14.975C16.6138 15.2316 15.1611 15.0529 13.8572 14.4629L5.74918 22.571C5.28238 23.0378 4.64926 23.3 3.98911 23.3C3.32896 23.3 2.69584 23.0378 2.22904 22.571C1.76224 22.1042 1.5 21.471 1.5 20.8109C1.5 20.1507 1.76224 19.5176 2.22904 19.0508L10.3371 10.9428C9.74707 9.63894 9.56842 8.18624 9.82495 6.7783C10.0815 5.37035 10.761 4.07401 11.773 3.06205C12.7849 2.05009 14.0813 1.37057 15.4892 1.11403C16.8972 0.857502 18.3499 1.03615 19.6537 1.62616L15.2418 6.03806L15.2301 6.0498Z" fill="#D6FACF" stroke="#1B8069" stroke-width="1.6" stroke-linecap="round" stroke-linejoin="round"/>
</svg>
