<svg width="66" height="62" viewBox="0 0 66 62" fill="none" xmlns="http://www.w3.org/2000/svg">
<path d="M30.9069 64.0077L30.7521 61.9713C30.3385 55.0935 32.6275 48.2014 37.2228 42.9092C45.1591 33.7855 63.5234 28.9214 73.7102 36.8314C61.0885 26.3482 42.4654 26.371 29.9577 37.508C20.0105 46.4022 15.2666 61.2367 18.9105 73.2488C22.3411 69.5198 26.4124 66.3156 30.9069 64.0077Z" fill="url(#paint0_linear)"/>
<path opacity="0.3" d="M70.0558 35.686C72.3392 36.3495 74.3436 37.1349 77.7434 36.2473C81.3349 35.3425 83.1658 34.2102 86.1305 31.7186C87.4387 30.1503 86.236 29.6791 81.3219 25.5802C64.1048 11.574 38.7044 13.9682 24.611 31.2899C13.6398 44.6557 12.7947 63.0991 21.034 77.2406C20.3025 75.5668 19.7455 73.6838 19.2758 71.6963C17.4318 63.0663 18.9351 54.0369 23.5756 46.5604C28.3904 38.8748 36.2028 33.3347 45.1117 31.3689C52.8002 29.8034 63.6953 30.5579 70.0558 35.686Z" fill="url(#paint1_linear)"/>
<defs>
<linearGradient id="paint0_linear" x1="30.6928" y1="69.206" x2="66.5956" y2="41.7406" gradientUnits="userSpaceOnUse">
<stop stop-color="#D7DBFF"/>
<stop offset="1" stop-color="#638CFF"/>
</linearGradient>
<linearGradient id="paint1_linear" x1="154.857" y1="-21.0072" x2="9.94457" y2="-1.31005" gradientUnits="userSpaceOnUse">
<stop stop-color="#D7DBFF"/>
<stop offset="1" stop-color="#6A91FF"/>
</linearGradient>
</defs>
</svg>
