<svg width="29" height="22" viewBox="0 0 29 22" fill="none" xmlns="http://www.w3.org/2000/svg">
<rect x="3.79999" y="3.79999" width="25.2" height="17.7333" rx="0.933333" fill="#E3E8FF"/>
<path d="M1 1L12.7919 12.8484C13.0118 13.0517 13.3004 13.1647 13.6 13.1647C13.8996 13.1647 14.1882 13.0517 14.4081 12.8484L26.2 1" stroke="#555ABF" stroke-width="1.02667" stroke-miterlimit="10" stroke-linecap="round" stroke-linejoin="round"/>
<path d="M1 1V1.04345V18.7573V18.8138H1.05648H26.0001H26.1435H26.2V18.7573V1.04345V1H1Z" stroke="#555ABF" stroke-width="1.02667" stroke-miterlimit="10" stroke-linecap="round" stroke-linejoin="round"/>
<path d="M1 1.56055V18.2533C1.00148 18.3032 1.01633 18.3517 1.043 18.3938C1.06968 18.436 1.10719 18.4702 1.15161 18.4929C1.19604 18.5155 1.24573 18.5258 1.2955 18.5226C1.34526 18.5195 1.39327 18.503 1.43448 18.4749L8.46667 11.7333" stroke="#555ABF" stroke-width="1.02667" stroke-miterlimit="10" stroke-linecap="round" stroke-linejoin="round"/>
<path d="M26.2 1.56055V18.2533C26.1985 18.3032 26.1837 18.3517 26.157 18.3938C26.1303 18.436 26.0928 18.4702 26.0484 18.4929C26.004 18.5155 25.9543 18.5258 25.9045 18.5226C25.8547 18.5195 25.8067 18.503 25.7655 18.4749L18.7333 11.7333" stroke="#555ABF" stroke-width="1.02667" stroke-miterlimit="10" stroke-linecap="round" stroke-linejoin="round"/>
</svg>
