<svg width="16" height="16" viewBox="0 0 16 16" fill="none" xmlns="http://www.w3.org/2000/svg"><path d="M7.25 4.3349H8.75V5.85919H7.25V4.3349ZM7.25 7.38348H8.75V11.9564H7.25V7.38348ZM8 0.52417C3.86 0.52417 0.5 3.93858 0.5 8.14563C0.5 12.3527 3.86 15.7671 8 15.7671C12.14 15.7671 15.5 12.3527 15.5 8.14563C15.5 3.93858 12.14 0.52417 8 0.52417ZM8 14.2428C4.6925 14.2428 2 11.5067 2 8.14563C2 4.78456 4.6925 2.04846 8 2.04846C11.3075 2.04846 14 4.78456 14 8.14563C14 11.5067 11.3075 14.2428 8 14.2428Z" fill="currentColor"/></svg>
