<svg width="34" height="36" viewBox="0 0 34 36" fill="none" xmlns="http://www.w3.org/2000/svg">
<path d="M9.59346 27.7185V33.5954C13.84 36.1737 21.4737 35.0489 24.7597 34.1642V29.8039C30.8262 29.6522 30.9526 25.1908 30.2575 22.9791L33.6699 21.652C33.4803 19.7562 29.6769 15.7662 29.8783 13.5002C30.6366 4.96918 13.5746 5.15874 8.45599 10.2773C4.36111 14.3722 7.5081 23.611 9.59346 27.7185Z" fill="#E3E8FF"/>
<path d="M29.0899 15.8908L25.5864 8.76307V8.68136C25.6324 8.3805 25.9923 5.70992 24.3995 3.71162C22.8067 1.71333 18.7557 0.691895 14.0385 0.691895C13.8432 0.691895 14.2491 0.691895 14.0385 0.691895C13.8279 0.691895 14.2376 0.691895 14.0385 0.691895C10.2517 0.840467 4.69217 2.11447 2.72794 4.52505C-0.0862907 7.93107 0.752236 13.0642 1.09684 15.1665L3.33291 22.3946V28.2C3.33589 28.4355 3.43366 28.6606 3.60535 28.8272C3.77705 28.9937 4.00905 29.0886 4.25184 29.0914C4.37323 29.094 4.4939 29.0727 4.60657 29.0288C4.71924 28.9848 4.82159 28.9193 4.90744 28.836C4.9933 28.7527 5.06089 28.6534 5.10615 28.5441C5.1514 28.4348 5.17339 28.3178 5.17078 28.2V22.2571C5.17036 22.1625 5.15486 22.0686 5.12483 21.9786L2.92705 14.7728C2.92705 14.6614 2.95385 14.9288 2.92705 14.7728C2.65902 13.1014 1.9009 8.37307 4.2059 5.58363C5.80254 3.64105 10.7801 2.58247 14.207 2.43762C14.609 2.40047 13.8241 2.43762 14.207 2.43762C18.2082 2.43762 21.7958 3.28819 23.044 4.79991C23.7639 5.69877 24.0855 7.26992 23.8098 8.62193V8.64421C23.7633 8.85368 23.786 9.07205 23.8749 9.26822L27.0988 15.8128L24.9164 16.6263C24.702 16.6799 24.5173 16.812 24.401 16.9947C24.2846 17.1775 24.2457 17.3968 24.2923 17.6068V17.7257C24.3535 18.0117 24.8589 20.5486 23.5992 22.1048C22.9713 22.896 21.3402 23.4086 19.5291 23.4086C19.263 23.4089 19.006 23.5025 18.8055 23.6723C18.6474 23.8236 18.5567 24.0289 18.5528 24.2443L18.3613 28.2372C18.3711 28.4661 18.4674 28.6836 18.632 28.848C18.7966 29.0125 19.0178 29.1123 19.2534 29.1286C19.3936 29.1192 19.5301 29.0813 19.6542 29.0173C19.7782 28.9533 19.8869 28.8647 19.9733 28.7572C20.0307 28.6747 20.0704 28.5819 20.0901 28.4843C20.1099 28.3867 20.1092 28.2862 20.0881 28.1889L20.2222 25.1134H20.4289C21.9605 24.9723 23.9553 24.3929 24.9279 23.1931C25.797 22.1457 26.2182 20.7231 26.1722 18.9663C26.1722 18.6803 26.1493 18.398 26.1186 18.1194V17.9708L28.707 17.0274C28.8891 16.9037 29.0249 16.7261 29.0939 16.5211C29.163 16.3161 29.1616 16.0949 29.0899 15.8908Z" fill="#6772E5"/>
<path d="M19.1347 11.6715H18.2923C18.1667 11.0044 17.8951 10.3711 17.4959 9.81434L18.1085 9.21634C18.2035 9.12873 18.2779 9.02238 18.3267 8.90448C18.3756 8.78657 18.3978 8.65986 18.3919 8.5329C18.3897 8.42181 18.3634 8.31242 18.3146 8.21191C18.2657 8.11141 18.1955 8.02207 18.1085 7.94976C18.0246 7.86527 17.9232 7.7988 17.8111 7.75466C17.699 7.71051 17.5786 7.68967 17.4576 7.69347C17.3335 7.69548 17.2111 7.72261 17.0983 7.77314C16.9856 7.82367 16.885 7.89648 16.8029 7.9869L16.2094 8.56633C15.6415 8.18938 14.9963 7.93597 14.3179 7.82347V6.99147C14.3179 6.75505 14.2211 6.52831 14.0488 6.36113C13.8765 6.19396 13.6427 6.10004 13.399 6.10004C13.1553 6.10004 12.9216 6.19396 12.7492 6.36113C12.5769 6.52831 12.4801 6.75505 12.4801 6.99147V7.82719C11.8164 7.95784 11.1879 8.22093 10.6346 8.59976L9.98364 7.98319C9.85489 7.85785 9.6906 7.77251 9.51168 7.73805C9.33277 7.70359 9.14733 7.72155 8.97898 7.78967C8.81063 7.85778 8.66698 7.97296 8.56633 8.12053C8.46568 8.2681 8.41259 8.44139 8.4138 8.61833C8.41708 8.73804 8.44561 8.85583 8.49764 8.96443C8.54966 9.07303 8.62407 9.17014 8.71628 9.24976L9.33273 9.85148C8.94665 10.3955 8.68551 11.0137 8.56695 11.6641H7.53315L7.37617 11.6938C7.16787 11.7409 6.98423 11.8597 6.85927 12.0281L6.83246 12.0801C6.73985 12.236 6.691 12.4127 6.6908 12.5926C6.69328 12.7073 6.71903 12.8203 6.76656 12.9253C6.81409 13.0303 6.88248 13.1251 6.96782 13.2045C7.05315 13.2838 7.15377 13.346 7.26391 13.3876C7.37405 13.4292 7.49156 13.4494 7.60973 13.4469H8.58993C8.71909 14.0771 8.97968 14.6749 9.3557 15.2038L8.6665 15.8761C8.54231 16.0469 8.46821 16.2471 8.45209 16.4555C8.44947 16.5733 8.47146 16.6903 8.51671 16.7996C8.56197 16.9089 8.62956 17.0082 8.71542 17.0915C8.80128 17.1748 8.90362 17.2403 9.01629 17.2842C9.12896 17.3281 9.24963 17.3495 9.37102 17.3469C9.61138 17.3313 9.83992 17.24 10.0219 17.0869L10.6652 16.4629C11.2126 16.8166 11.8268 17.0615 12.4724 17.1835V18.0898C12.4724 18.3262 12.5692 18.553 12.7416 18.7201C12.9139 18.8873 13.1476 18.9812 13.3914 18.9812C13.6351 18.9812 13.8688 18.8873 14.0411 18.7201C14.2135 18.553 14.3103 18.3262 14.3103 18.0898V17.1984C14.7332 17.1302 15.1443 17.0052 15.5317 16.8269C15.7533 16.7285 15.967 16.6143 16.1711 16.4852L16.711 17.0164C16.7897 17.1258 16.8945 17.215 17.0166 17.2765C17.1386 17.338 17.2742 17.3698 17.4117 17.3692H17.5266C17.6441 17.3627 17.7591 17.3331 17.8645 17.282C17.9698 17.2309 18.0633 17.1594 18.1392 17.0721C18.2762 16.9012 18.3563 16.6939 18.3689 16.4778C18.3631 16.2413 18.2677 16.0152 18.1009 15.8427L17.4921 15.2484C17.8736 14.7142 18.1345 14.1079 18.2579 13.4692H19.1347C19.3775 13.4663 19.6095 13.3715 19.7812 13.2049C19.9529 13.0384 20.0506 12.8133 20.0536 12.5778C20.0584 12.4588 20.0379 12.3401 19.9936 12.2291C19.9493 12.118 19.8821 12.0169 19.796 11.9321C19.7099 11.8472 19.6068 11.7803 19.4931 11.7354C19.3794 11.6906 19.2574 11.6689 19.1347 11.6715ZM13.3914 15.7572C12.7234 15.758 12.0702 15.5663 11.5147 15.2065C10.9591 14.8467 10.5262 14.335 10.2707 13.7363C10.0153 13.1376 9.94881 12.4787 10.0798 11.8433C10.2108 11.2079 10.5332 10.6245 11.0064 10.1671C11.4795 9.7097 12.082 9.39885 12.7375 9.27397C13.3929 9.14909 14.0718 9.2158 14.6882 9.46564C15.3045 9.71548 15.8305 10.1372 16.1995 10.6774C16.5685 11.2175 16.7638 11.8518 16.7608 12.4998C16.7638 13.367 16.4119 14.1999 15.7823 14.8156C15.1526 15.4313 14.2968 15.7793 13.4028 15.7832L13.3914 15.7572Z" fill="#6772E5"/>
</svg>
