<svg width="27" height="26" viewBox="0 0 27 26" fill="none" xmlns="http://www.w3.org/2000/svg">
<path d="M24.35 3.6167H6.1167C5.01213 3.6167 4.1167 4.51213 4.1167 5.6167V23.85C4.1167 24.9546 5.01213 25.85 6.1167 25.85H24.35C25.4546 25.85 26.35 24.9546 26.35 23.85V5.6167C26.35 4.51213 25.4546 3.6167 24.35 3.6167Z" fill="#FFE0F5"/>
<path d="M3.80002 4.45039C4.43515 4.45039 4.95002 3.93552 4.95002 3.30039C4.95002 2.66526 4.43515 2.15039 3.80002 2.15039C3.1649 2.15039 2.65002 2.66526 2.65002 3.30039C2.65002 3.93552 3.1649 4.45039 3.80002 4.45039Z" fill="#9251AC"/>
<path d="M7.2501 4.45039C7.88523 4.45039 8.4001 3.93552 8.4001 3.30039C8.4001 2.66526 7.88523 2.15039 7.2501 2.15039C6.61497 2.15039 6.1001 2.66526 6.1001 3.30039C6.1001 3.93552 6.61497 4.45039 7.2501 4.45039Z" fill="#9251AC"/>
<path d="M10.7 4.45039C11.3352 4.45039 11.85 3.93552 11.85 3.30039C11.85 2.66526 11.3352 2.15039 10.7 2.15039C10.0649 2.15039 9.55005 2.66526 9.55005 3.30039C9.55005 3.93552 10.0649 4.45039 10.7 4.45039Z" fill="#9251AC"/>
<path d="M21.7333 1H3.5C2.39543 1 1.5 1.89543 1.5 3V5.6H23.7333V3C23.7333 1.89543 22.8379 1 21.7333 1Z" stroke="#9251AC" stroke-width="1.6" stroke-miterlimit="10"/>
<path d="M21.7333 1H3.5C2.39543 1 1.5 1.89543 1.5 3V21.2333C1.5 22.3379 2.39543 23.2333 3.5 23.2333H21.7333C22.8379 23.2333 23.7333 22.3379 23.7333 21.2333V3C23.7333 1.89543 22.8379 1 21.7333 1Z" stroke="#9251AC" stroke-width="1.6" stroke-miterlimit="10"/>
<path d="M11.2371 17.1937C11.1705 17.236 11.0834 17.1882 11.0834 17.1093V14.589V12.107C11.0834 12.0281 11.1705 11.9802 11.2371 12.0226L15.1675 14.5238C15.2292 14.5631 15.2292 14.6532 15.1675 14.6925L11.2371 17.1937Z" stroke="#9251AC" stroke-width="1.6" stroke-linecap="round" stroke-linejoin="round"/>
</svg>
