<svg width="23" height="30" viewBox="0 0 23 30" fill="none" xmlns="http://www.w3.org/2000/svg">
<path d="M13.088 29.9963L5.81849 19.4971C3.10368 15.8773 3.46363 9.85773 6.6634 6.65795C8.36928 4.95588 10.6807 4 13.0905 4C15.5003 4 17.8116 4.95588 19.5175 6.65795C22.7123 9.85773 23.0723 15.8773 20.3574 19.4971L13.088 29.9963Z" fill="#D6FACF"/>
<path d="M10.1779 12.9974C11.8346 12.9974 13.1777 11.6543 13.1777 9.99759C13.1777 8.34085 11.8346 6.9978 10.1779 6.9978C8.52115 6.9978 7.1781 8.34085 7.1781 9.99759C7.1781 11.6543 8.52115 12.9974 10.1779 12.9974Z" stroke="#1B8069" stroke-width="1.65" stroke-miterlimit="10" stroke-linecap="round"/>
<path d="M10.088 26.9963L2.81849 16.4971C0.103684 12.8773 0.463629 6.85773 3.6634 3.65795C5.36928 1.95588 7.68068 1 10.0905 1C12.5003 1 14.8116 1.95588 16.5175 3.65795C19.7123 6.85773 20.0723 12.8773 17.3574 16.4971L10.088 26.9963Z" stroke="#1B8069" stroke-width="1.65" stroke-miterlimit="10" stroke-linecap="round"/>
</svg>
