<svg width="34" height="32" viewBox="0 0 34 32" fill="none" xmlns="http://www.w3.org/2000/svg">
<path d="M32.9286 13H5.07143C4.47969 13 4 13.4726 4 14.0556V30.9444C4 31.5274 4.47969 32 5.07143 32H32.9286C33.5203 32 34 31.5274 34 30.9444V14.0556C34 13.4726 33.5203 13 32.9286 13Z" fill="#FFE0F5"/>
<path d="M13.1194 27.1866H2C1.44771 27.1866 1 26.7389 1 26.1866V11.306C1 10.7537 1.44772 10.306 2 10.306H7.85588C8.17195 10.306 8.46941 10.1565 8.65811 9.90298L14.4813 2.078C14.8812 1.54068 15.6859 1.54068 16.0858 2.078L21.9091 9.90298C22.0978 10.1565 22.3952 10.306 22.7113 10.306H29C29.5523 10.306 30 10.7537 30 11.306V26.1866C30 26.7389 29.5523 27.1866 29 27.1866H18.3134" stroke="#9251AC" stroke-width="1.6"/>
<path d="M18.3134 27.9606V23.5077C18.3134 22.0734 17.1507 20.9106 15.7164 20.9106V20.9106C14.2821 20.9106 13.1194 22.0734 13.1194 23.5077V27.9606" stroke="#9251AC" stroke-width="1.6"/>
<circle cx="15.7165" cy="12.2537" r="2.66269" stroke="#9251AC" stroke-width="1.6"/>
<rect x="5.5" y="14.5" width="2" height="2" stroke="#9251AC"/>
<rect x="5.5" y="19.5" width="2" height="2" stroke="#9251AC"/>
<rect x="23.5" y="14.5" width="2" height="2" stroke="#9251AC"/>
<rect x="23.5" y="19.5" width="2" height="2" stroke="#9251AC"/>
</svg>
