<svg width="28" height="28" viewBox="0 0 28 28" fill="none" xmlns="http://www.w3.org/2000/svg">
<circle cx="16.2481" cy="15.2873" r="11.7293" fill="#FBEEBF"/>
<path d="M15.8571 4.53546C15.8571 2.59208 14.2816 1.01666 12.3383 1.01666C10.3949 1.01666 8.81946 2.59208 8.81946 4.53546V20.1746C8.81946 22.1179 10.3949 23.6933 12.3383 23.6933C14.2816 23.6933 15.8571 22.1179 15.8571 20.1746V4.53546Z" stroke="#F1A731" stroke-width="1.56391" stroke-miterlimit="10" stroke-linecap="round"/>
<path d="M20.158 15.8738C22.1013 15.8738 23.6768 14.2984 23.6768 12.355C23.6768 10.4116 22.1013 8.83621 20.158 8.83621L4.51887 8.83621C2.57549 8.83621 1.00007 10.4116 1.00007 12.355C1.00007 14.2984 2.57549 15.8738 4.51887 15.8738H20.158Z" stroke="#F1A731" stroke-width="1.56391" stroke-miterlimit="10" stroke-linecap="round"/>
<path d="M20.3554 9.31197C21.7295 7.93779 21.7295 5.70981 20.3554 4.33564C18.9812 2.96146 16.7532 2.96146 15.379 4.33564L4.32051 15.3941C2.94634 16.7683 2.94634 18.9963 4.32051 20.3705C5.69469 21.7447 7.92267 21.7447 9.29684 20.3705L20.3554 9.31197Z" stroke="#F1A731" stroke-width="1.56391" stroke-miterlimit="10" stroke-linecap="round"/>
<path d="M15.3813 20.3721C16.7555 21.7463 18.9835 21.7463 20.3577 20.3721C21.7318 18.998 21.7318 16.77 20.3577 15.3958L9.29915 4.3373C7.92498 2.96312 5.697 2.96312 4.32282 4.3373C2.94865 5.71147 2.94865 7.93945 4.32282 9.31363L15.3813 20.3721Z" stroke="#F1A731" stroke-width="1.56391" stroke-miterlimit="10" stroke-linecap="round"/>
</svg>
