<svg width="26" height="22" viewBox="0 0 26 22" fill="none" xmlns="http://www.w3.org/2000/svg">
<rect x="3.78992" y="3.80659" width="22.2101" height="17.4508" rx="1.78571" fill="#E3E8FF"/>
<path d="M22.4442 1.01666H1V17.8657H22.4442V1.01666Z" stroke="#6772E5" stroke-width="1.26915" stroke-linecap="round" stroke-linejoin="round"/>
<path d="M10.1904 12.1217V9.42203V6.76065L14.4027 9.44118L10.1904 12.1217Z" stroke="#6772E5" stroke-width="1.26915" stroke-linecap="round" stroke-linejoin="round"/>
<path d="M4.82933 1.01666H1V5.22892H4.82933V1.01666Z" stroke="#6772E5" stroke-width="1.26915" stroke-linecap="round" stroke-linejoin="round"/>
<path d="M4.82933 5.22891H1V9.44117H4.82933V5.22891Z" stroke="#6772E5" stroke-width="1.26915" stroke-linecap="round" stroke-linejoin="round"/>
<path d="M4.82933 9.44119H1V13.6535H4.82933V9.44119Z" stroke="#6772E5" stroke-width="1.26915" stroke-linecap="round" stroke-linejoin="round"/>
<path d="M4.82933 13.6534H1V17.8657H4.82933V13.6534Z" stroke="#6772E5" stroke-width="1.26915" stroke-linecap="round" stroke-linejoin="round"/>
<path d="M22.4442 1.01666H18.6149V5.22892H22.4442V1.01666Z" stroke="#6772E5" stroke-width="1.26915" stroke-linecap="round" stroke-linejoin="round"/>
<path d="M22.4442 5.22891H18.6149V9.44117H22.4442V5.22891Z" stroke="#6772E5" stroke-width="1.26915" stroke-linecap="round" stroke-linejoin="round"/>
<path d="M22.4442 9.44119H18.6149V13.6535H22.4442V9.44119Z" stroke="#6772E5" stroke-width="1.26915" stroke-linecap="round" stroke-linejoin="round"/>
<path d="M22.4442 13.6534H18.6149V17.8657H22.4442V13.6534Z" stroke="#6772E5" stroke-width="1.26915" stroke-linecap="round" stroke-linejoin="round"/>
</svg>
