<svg width="30" height="35" viewBox="0 0 30 35" fill="none" xmlns="http://www.w3.org/2000/svg">
<path d="M3.78017 12.7521C7.67849 4.52591 19.3734 0.781795 24.7337 5.92132C38.3778 17.1072 18.3989 36.2462 11.5769 33.988C8.65312 33.0202 6.21662 32.1084 6.21662 28.7211C6.21662 25.3337 24.7337 20.4386 14.5006 19.9546C6.31412 19.5675 1.02833 18.559 3.78017 12.7521Z" fill="#D6FACF"/>
<path d="M27.6347 10.8611C27.3937 10.6234 27.1071 10.441 26.7935 10.3259C26.4799 10.2108 26.1465 10.1656 25.8149 10.1932C25.1474 10.2109 24.4886 10.3554 23.8714 10.6196C23.7373 10.6539 23.6173 10.7319 23.5293 10.8423L12.2938 22.4773C12.1495 22.6014 12.0569 22.7785 12.0354 22.9717L11.3439 26.7645V26.8475C11.3409 26.9723 11.3624 27.0963 11.4071 27.2122C11.4517 27.3281 11.5186 27.4333 11.6037 27.5216C11.6888 27.6098 11.7903 27.6792 11.9021 27.7255C12.0138 27.7718 12.1335 27.7941 12.2538 27.791L16.4029 26.9343C16.569 26.889 16.7223 26.8036 16.8506 26.6852L28.1333 15.0653C28.2405 14.9765 28.3223 14.8591 28.3699 14.7256L28.4172 14.6011C28.541 14.0161 28.8503 11.9594 27.6347 10.8611ZM13.353 25.6285L13.7824 23.5378L24.6794 12.2424H24.7558C25.5237 11.9745 26.168 11.9518 26.4409 12.1782C26.8449 12.5104 26.783 13.4274 26.7612 13.7595V13.8727L15.8424 25.1153L13.353 25.6285Z" fill="#24B47E"/>
<path d="M9.74615 26.4135C4.34136 24.3303 3.86821 23.0472 3.85729 22.6962C3.82454 21.881 6.04105 20.8092 7.07833 20.3111L7.46777 20.1224C7.7371 19.9941 8.16293 19.8243 8.65791 19.6242C10.9618 18.7109 13.8261 17.5712 13.6733 15.6616C13.5495 14.0841 11.5696 13.0198 6.8454 12.0273C4.13026 11.4574 2.43421 10.5819 2.30683 9.69124C2.1576 8.70247 3.79542 7.09477 6.45596 5.60407C11.6933 2.66795 18.4229 1.28292 19.6276 2.38868C19.7157 2.47074 19.8187 2.53372 19.9306 2.5739C20.0425 2.61409 20.161 2.63066 20.2791 2.62266C20.4565 2.61098 20.6267 2.54523 20.7682 2.43368C20.9097 2.32213 21.0163 2.16973 21.0746 1.99561C21.1329 1.82148 21.1403 1.63338 21.0959 1.4549C21.0515 1.27641 20.9573 1.11549 20.8251 0.992322C18.4994 -1.15127 10.3904 1.27914 5.6043 3.96241C3.09298 5.36631 0.177667 7.54765 0.523428 9.96674C0.785479 11.7933 2.73266 13.0689 6.48508 13.8652C11.4531 14.9219 11.8717 15.8239 11.8789 15.8239C11.8862 15.8239 11.7734 16.3937 8.0137 17.8882C7.48596 18.0996 7.03101 18.2656 6.70345 18.4392L6.33949 18.6241C4.40323 19.5563 1.99382 20.7187 2.07389 22.7755C2.14669 24.6624 4.3268 26.3116 9.13834 28.1609C9.23808 28.2012 9.34427 28.2217 9.45134 28.2213C9.63379 28.2172 9.81075 28.1558 9.95889 28.0453C10.107 27.9348 10.2194 27.7804 10.2812 27.6023C10.3624 27.3695 10.3518 27.1129 10.2516 26.8882C10.1515 26.6635 9.9698 26.4889 9.74615 26.4022V26.4135Z" fill="#24B47E"/>
</svg>
