<svg width="32" height="33" viewBox="0 0 32 33" fill="none" xmlns="http://www.w3.org/2000/svg">
<path d="M31.5866 16.2933C31.5866 18.038 29.7532 19.4048 29.126 20.9204C28.4988 22.4359 28.7762 24.7354 27.5982 25.9414C26.4201 27.1474 24.1565 26.8218 22.5844 27.4731C21.0124 28.1243 19.7016 29.9333 17.9567 29.9333C16.2117 29.9333 14.8447 28.1002 13.3289 27.4731C11.8132 26.8459 9.50532 27.1193 8.29913 25.9414C7.09294 24.7635 7.41861 22.5003 6.76727 20.9284C6.11593 19.3566 4.30664 18.0461 4.30664 16.3014C4.30664 14.5567 6.14005 13.1898 6.76727 11.6743C7.39449 10.1587 7.12108 7.85123 8.29913 6.64522C9.47718 5.43921 11.7408 5.76483 13.3129 5.11358C14.8849 4.46234 16.1957 2.65332 17.9406 2.65332C19.6856 2.65332 21.0526 4.48646 22.5684 5.11358C24.0841 5.74071 26.392 5.46735 27.5982 6.64522C28.8044 7.82309 28.4787 10.0864 29.13 11.6582C29.7814 13.23 31.5866 14.5486 31.5866 16.2933Z" fill="#CEFFD3"/>
<path d="M26.4907 13.3339C26.4907 14.9115 24.8331 16.1474 24.2661 17.5178C23.699 18.8883 23.9498 20.9675 22.8847 22.0581C21.8196 23.1486 19.7731 22.8541 18.3518 23.443C16.9305 24.0319 15.7454 25.6677 14.1678 25.6677C12.5902 25.6677 11.3542 24.0101 9.9838 23.443C8.61337 22.876 6.52683 23.1231 5.4363 22.0581C4.34578 20.993 4.64022 18.9464 4.05133 17.5251C3.46245 16.1038 1.82666 14.9188 1.82666 13.3411C1.82666 11.7635 3.48426 10.5276 4.05133 9.15713C4.61841 7.78671 4.37122 5.70017 5.4363 4.60964C6.50138 3.51911 8.54794 3.81356 9.96926 3.22467C11.3906 2.63579 12.5756 1 14.1532 1C15.7309 1 16.9668 2.6576 18.3372 3.22467C19.7077 3.79175 21.7942 3.54456 22.8847 4.60964C23.9753 5.67472 23.6808 7.72128 24.2697 9.1426C24.8586 10.5639 26.4907 11.7562 26.4907 13.3339Z" stroke="#6B7C93" stroke-width="1.65333" stroke-miterlimit="10"/>
<path d="M3.89333 24.1467L1 29.9334L3.89333 29.5201L5.54667 32.0001L8.44 25.8001" stroke="#6B7C93" stroke-width="1.65333" stroke-linecap="round" stroke-linejoin="round"/>
<path d="M24.56 24.1467L27.4533 29.9334L24.56 29.5201L22.9066 32.0001L20.0133 25.8001" stroke="#6B7C93" stroke-width="1.65333" stroke-linecap="round" stroke-linejoin="round"/>
<circle cx="14.2267" cy="13.4" r="6.61333" stroke="#6B7C93" stroke-width="1.65333" stroke-miterlimit="10"/>
</svg>
