<svg width="31" height="29" viewBox="0 0 31 29" fill="none" xmlns="http://www.w3.org/2000/svg">
<path d="M6.35746 4.94995C6.11678 4.94995 5.88594 5.04556 5.71575 5.21575C5.54556 5.38594 5.44995 5.61678 5.44995 5.85746V28.6L9.84995 24.2H29.2924C29.5331 24.2 29.764 24.1043 29.9341 23.9341C30.1043 23.764 30.2 23.5331 30.2 23.2924V5.85746C30.2 5.73829 30.1765 5.62026 30.1309 5.51016C30.0853 5.40005 30.0184 5.30002 29.9341 5.21575C29.8499 5.13148 29.7498 5.06464 29.6397 5.01904C29.5296 4.97343 29.4116 4.94995 29.2924 4.94995H6.35746Z" fill="#C0F6FD"/>
<path d="M1.90751 1C1.66683 1 1.43599 1.09561 1.2658 1.2658C1.09561 1.43599 1 1.66683 1 1.90751V24.65L5.4 20.25H24.8425C25.0832 20.25 25.314 20.1544 25.4842 19.9842C25.6544 19.814 25.75 19.5832 25.75 19.3425V1.90751C25.75 1.78834 25.7265 1.67031 25.6809 1.56021C25.6353 1.4501 25.5685 1.35007 25.4842 1.2658C25.3999 1.18153 25.2999 1.11469 25.1898 1.06909C25.0797 1.02348 24.9617 1 24.8425 1H1.90751Z" stroke="#6B7C93" stroke-width="1.6" stroke-miterlimit="10" stroke-linecap="round" stroke-linejoin="round"/>
<path d="M5.95005 12.539C6.86132 12.539 7.60005 11.8003 7.60005 10.889C7.60005 9.97774 6.86132 9.23901 5.95005 9.23901C5.03878 9.23901 4.30005 9.97774 4.30005 10.889C4.30005 11.8003 5.03878 12.539 5.95005 12.539Z" stroke="#6B7C93" stroke-width="1.6" stroke-linecap="round" stroke-linejoin="round"/>
<path d="M13.1 12.539C14.0112 12.539 14.75 11.8003 14.75 10.889C14.75 9.97774 14.0112 9.23901 13.1 9.23901C12.1887 9.23901 11.45 9.97774 11.45 10.889C11.45 11.8003 12.1887 12.539 13.1 12.539Z" stroke="#6B7C93" stroke-width="1.6" stroke-linecap="round" stroke-linejoin="round"/>
<path d="M20.25 12.539C21.1612 12.539 21.9 11.8003 21.9 10.889C21.9 9.97774 21.1612 9.23901 20.25 9.23901C19.3387 9.23901 18.6 9.97774 18.6 10.889C18.6 11.8003 19.3387 12.539 20.25 12.539Z" stroke="#6B7C93" stroke-width="1.6" stroke-linecap="round" stroke-linejoin="round"/>
</svg>
