<svg width="27" height="28" viewBox="0 0 27 28" fill="none" xmlns="http://www.w3.org/2000/svg">
<path d="M24.5 4H4.5C3.39543 4 2.5 4.89543 2.5 6V26C2.5 27.1046 3.39543 28 4.5 28H24.5C25.6046 28 26.5 27.1046 26.5 26V6C26.5 4.89543 25.6046 4 24.5 4Z" fill="#C0F8FF"/>
<path d="M20.8333 3.4165H3.91667C2.58198 3.4165 1.5 4.49848 1.5 5.83317V22.7498C1.5 24.0845 2.58198 25.1665 3.91667 25.1665H20.8333C22.168 25.1665 23.25 24.0845 23.25 22.7498V5.83317C23.25 4.49848 22.168 3.4165 20.8333 3.4165Z" stroke="#125B98" stroke-width="1.6" stroke-linecap="round" stroke-linejoin="round"/>
<path d="M17.2083 1V5.83333" stroke="#125B98" stroke-width="1.6" stroke-linecap="round" stroke-linejoin="round"/>
<path d="M7.54175 1V5.83333" stroke="#125B98" stroke-width="1.6" stroke-linecap="round" stroke-linejoin="round"/>
<path d="M1.5 10.6665H23.25" stroke="#125B98" stroke-width="1.6" stroke-linecap="round" stroke-linejoin="round"/>
</svg>
