<svg width="28" height="23" viewBox="0 0 28 23" fill="none" xmlns="http://www.w3.org/2000/svg">
<path d="M22.3597 3.55585H10.0171C9.41973 3.55585 8.86305 3.85869 8.53851 4.36026L5.73967 8.68574C5.31508 9.34193 5.37374 10.1994 5.88374 10.7917L15.0167 21.3978C15.7346 22.2315 17.0327 22.2102 17.7228 21.3534L26.2718 10.7409C26.7315 10.1703 26.7898 9.37467 26.4183 8.74311L23.8777 4.42407C23.5612 3.88614 22.9838 3.55585 22.3597 3.55585Z" fill="#CBF4F9"/>
<path d="M11.9939 20.7132L1 7.06561H22.9878L11.9939 20.7132Z" stroke="#217AB7" stroke-width="1.17399" stroke-linecap="round" stroke-linejoin="round"/>
<path d="M22.9878 7.06559H1L4.79099 1H19.1968L22.9878 7.06559Z" stroke="#217AB7" stroke-width="1.17399" stroke-linecap="round" stroke-linejoin="round"/>
<path d="M4.79102 1L11.9939 20.7132" stroke="#217AB7" stroke-width="1.17399" stroke-linecap="round" stroke-linejoin="round"/>
<path d="M19.1968 1L11.9939 20.3341" stroke="#217AB7" stroke-width="1.17399" stroke-linecap="round" stroke-linejoin="round"/>
<path d="M7.06555 7.06559L11.9938 1" stroke="#217AB7" stroke-width="1.17399" stroke-linecap="round" stroke-linejoin="round"/>
<path d="M16.9222 7.06559L11.9939 1" stroke="#217AB7" stroke-width="1.17399" stroke-linecap="round" stroke-linejoin="round"/>
</svg>
