<svg width="19" height="27" viewBox="0 0 19 27" fill="none" xmlns="http://www.w3.org/2000/svg">
<rect x="4.6842" y="5.57895" width="14.3158" height="20.5789" rx="1.78947" fill="#D6FACF"/>
<path d="M10.2559 2.48094V1.74047C10.2559 1.54409 10.1779 1.35576 10.039 1.21689C9.90018 1.07802 9.71184 1 9.51546 1H7.29404C7.09766 1 6.90933 1.07802 6.77046 1.21689C6.6316 1.35576 6.55357 1.54409 6.55357 1.74047V2.48094H5.07263C4.97444 2.48094 4.88027 2.51996 4.81084 2.58939C4.7414 2.65882 4.70239 2.75299 4.70239 2.85118V5.44283C4.70239 5.54102 4.7414 5.63519 4.81084 5.70462C4.88027 5.77406 4.97444 5.81307 5.07263 5.81307H11.7369C11.8351 5.81307 11.9292 5.77406 11.9987 5.70462C12.0681 5.63519 12.1071 5.54102 12.1071 5.44283V2.85118C12.1071 2.75299 12.0681 2.65882 11.9987 2.58939C11.9292 2.51996 11.8351 2.48094 11.7369 2.48094H10.2559Z" stroke="#24B47E" stroke-width="1.43158" stroke-linecap="round" stroke-linejoin="round"/>
<path d="M12.1071 3.59164V5.44282C12.1071 5.54102 12.0681 5.63518 11.9986 5.70461C11.9292 5.77405 11.835 5.81306 11.7368 5.81306H5.0726C4.9744 5.81306 4.88024 5.77405 4.8108 5.70461C4.74137 5.63518 4.70236 5.54102 4.70236 5.44282V3.59164H2.48094C2.08817 3.59164 1.71149 3.74767 1.43376 4.0254C1.15603 4.30313 1 4.67982 1 5.07259V20.9927C1 21.3855 1.15603 21.7622 1.43376 22.0399C1.71149 22.3176 2.08817 22.4737 2.48094 22.4737H14.3285C14.7213 22.4737 15.0979 22.3176 15.3757 22.0399C15.6534 21.7622 15.8094 21.3855 15.8094 20.9927V5.07259C15.8094 4.67982 15.6534 4.30313 15.3757 4.0254C15.0979 3.74767 14.7213 3.59164 14.3285 3.59164H12.1071Z" stroke="#24B47E" stroke-width="1.43158" stroke-linecap="round" stroke-linejoin="round"/>
<path d="M5.44287 10.6261L7.29405 15.8094L8.40476 13.588L10.6225 12.4773L5.44287 10.6261Z" stroke="#24B47E" stroke-width="1.43158" stroke-miterlimit="10" stroke-linejoin="round"/>
<path d="M8.40466 13.588L11.3666 16.5499" stroke="#24B47E" stroke-width="1.43158" stroke-miterlimit="10" stroke-linecap="round"/>
</svg>
