<svg id="slp" xmlns="http://www.w3.org/2000/svg" viewBox="0 0 76.93 74.39"><defs><style>.cls-1{fill:#46b1e1}</style></defs><path class="cls-1" d="M53.26 55.26a2.32 2.32 0 002.37-2.37V4.68a2.32 2.32 0 00-2.37-2.37H3.52a2.32 2.32 0 00-2.37 2.37v48A2.4 2.4 0 003.52 55h8.37v8.1a2.4 2.4 0 002.37 2.37 3.13 3.13 0 001.38-.47l12.84-9.65zm-39-5H5.9V7.05H51v43.47l-23.33.06a2.3 2.3 0 00-1.38.5l-9.64 7.27v-5.69a2.32 2.32 0 00-2.39-2.37z" transform="translate(-1.15 -2.31)"/><path class="cls-1" d="M75.71 13H61.92a2.4 2.4 0 00-2.37 2.37 2.32 2.32 0 002.37 2.37h11.52v43h-9.65a2.32 2.32 0 00-2.37 2.37v6.36l-10-8.27a2.53 2.53 0 00-1.42-.47H30a2.4 2.4 0 00-2.38 2.37A2.32 2.32 0 0030 65.47h19l13.2 10.77a2.61 2.61 0 001.44.46 2.41 2.41 0 002.37-2.37v-9h9.64A2.32 2.32 0 0078.08 63V15.32A2.32 2.32 0 0075.71 13z" transform="translate(-1.15 -2.31)"/></svg>