<svg xmlns="http://www.w3.org/2000/svg" viewBox="0 0 197.47 531.65"><style/><path d="M187.86 289.07c-6.57 1.56-10.25 6.35-12.97 11.97-2.53 5.22-4.6 10.67-6.99 15.96-3.1 6.85-8.4 10.98-15.85 12.25-5.06.86-10.15 1.62-15.2 2.57-3.03.57-3.63-.44-3.29-3.4 2.05-18.1 12.96-28.83 29-35.38 8.1-3.3 16.73-4.02 25.3-4.98v1.01zm-76.19 210.55c-10.95-1.89-19.45 3.25-27.85 8.74-2.78 1.82-5.62 3.56-8.47 5.27-9.04 5.4-18.3 5.62-27.49.62-5.11-2.78-10.16-5.68-15.61-7.72-3-1.12-2.9-2.32-1.05-4.56 9.78-11.86 22.53-17.33 37.64-17.23 15.76.1 29.8 5.76 42.83 14.88zm32.44-50.58c-8.58-.06-15.46 3.65-21.71 8.92-5.08 4.28-10.11 8.63-15.73 12.23-5.51 3.52-11.31 4.41-17.61 2.28-6.29-2.12-12.61-4.17-19.02-5.88-3.74-1-3.43-2.33-1.56-5.02 10.63-15.32 25.61-21.65 43.75-21.09 11.21.34 21.83 3.43 31.88 8.56zm24.03-55.37c-12.81 1.53-18.92 11.6-26.17 20.15-4.58 5.4-9.13 10.84-16.71 11.71-8.86 1.02-17.47-1.67-26.21-2.45-2.44-.22-.84-2.38-.38-3.56 5.97-15.25 17.44-23.99 33.15-27.34 12.1-2.58 24.16-1.48 36.32 1.49zM33.29 420.26c8.78 18.5 12.63 37.1 2.41 56.26-3.12 5.85-7.77 10.32-13.36 13.86-2.05 1.3-3.47 1.86-4.09-1.28-.87-4.43-2.72-8.53-4.44-12.68-4.2-10.15-1.81-19.21 4.86-27.45 1.46-1.81 3.13-3.45 4.66-5.2 5.87-6.72 11.2-13.66 9.96-23.51zm147.69-79.47c-10.44 3.25-14.92 12.1-19.95 20.43-1.12 1.85-2.43 3.58-3.5 5.45-4.16 7.34-10.6 10.73-18.86 10.98-5.48.17-10.98.15-16.45.47-2.92.17-3.29-.74-2.64-3.41 3.69-15.16 13.27-24.98 27.52-30.49 10.85-4.19 22.17-4.67 33.88-3.43zM59.42 385.51c7.69 13.46 13.81 27.34 12.01 43.3-1.09 9.68-5.87 17.52-13.29 23.83-2.11 1.8-3.21 1.75-4.19-.96-1.48-4.07-3.67-7.8-5.87-11.54-4.38-7.44-4.61-15.18-.68-22.87 1.73-3.39 3.86-6.6 5.94-9.8 4.34-6.66 7.5-13.61 6.08-21.96zm15.8-36.47c18.05 16.1 26.89 42.91 13.17 62.31-2.52 3.56-3.81 3.51-6.13 0-2.46-3.73-5.55-7.04-8.24-10.63-4.4-5.88-5.41-12.37-3.09-19.33 1-2.99 1.97-6 3.18-8.9 3.03-7.25 4.55-14.57 1.11-23.45zm110.42-110.65c-6.03 3.75-9 9.36-10.76 15.8-1.36 4.96-2.66 9.95-4.08 14.89-1.3 4.51-3.86 8.39-8.18 10.19-6.27 2.61-12.81 4.58-19.28 6.69-3.02.99-2.8-1.58-2.86-3.21-.35-9.32 2.3-17.75 8.21-24.99 9.55-11.68 22.4-17.21 36.95-19.37zm-97.12 73.75c6.29 2.72 10.72 7.6 14.61 12.87 9.9 13.4 12.99 27.78 5.49 43.47-1.45 3.03-2.67 3.72-5.15.87-2.05-2.36-4.57-4.33-6.96-6.39-7.2-6.2-9.91-13.86-7.88-23.21.98-4.53 2.5-8.96 2.76-13.65.26-4.87-.24-9.53-2.87-13.96zm87.13-119.39c.16 3.05-1.34 4.96-2.15 7.06-2.69 6.99-5.16 13.98-5.85 21.56-.63 6.83-4.46 11.66-10.79 14.43-4.11 1.79-8.32 3.4-12.31 5.44-3.76 1.92-4.45.42-4.65-3.08-.89-15.62 5-27.84 17.91-36.66 5.38-3.68 11.07-6.71 17.84-8.75zm-79.49 81.77c14.86 8.06 26.12 18.84 28.01 36.66.22 2.12-.07 4.3-.2 6.44-.21 3.36-.47 7.53-2.84 9.3-3.28 2.45-4.98-2.5-7.64-3.74-11.74-5.49-15.73-14.77-13.71-27.38 1.17-7.3.99-14.66-3.62-21.28zm66.26-126.46c.9 1.93-.07 3.27-.52 4.63-2.12 6.54-3.44 13.16-2.92 20.1.69 9.37-2.76 16.5-11.45 20.83-2.82 1.4-5.5 3.14-8.06 4.98-2.36 1.69-3.29 1.11-4.11-1.52-1.93-6.22-2.22-12.45-.46-18.68 4.15-14.64 14.34-23.78 27.52-30.34zm-16.36-38.91c-4.87 8.95.24 18.01-1.04 26.98-1.51 10.59-7.49 17.76-16.21 23.2-2.99 1.87-3.34-.42-3.96-2.28-4.52-13.55-2.16-25.83 6.96-36.81 3.83-4.62 8.43-8.32 14.25-11.09zM97.74 237.56c9.25 2.73 16.34 7.45 22.4 13.65 7.64 7.83 10.77 17.33 9.74 28.29-.36 3.77-1.68 4.67-4.99 2.92-1.02-.54-2.13-.98-3.24-1.28-12.53-3.38-17.48-11.96-17.54-24.47-.05-10.11-1.16-12.6-6.37-19.11zm-.5-36.66c15.85 2.33 29.92 16.05 32.22 30.59.18 1.14.26 2.32.24 3.48-.15 6.97-.82 7.4-7.07 4.95-1.85-.73-3.8-1.21-5.67-1.9-5.95-2.2-10.56-6.02-12.16-12.27-2.09-8.18-3.84-16.43-7.56-24.85zm29.97-101.83c.39 7.17-1.66 12.85-7.02 17.15-1.42 1.14-2.92 2.2-4.22 3.47-4.54 4.43-4.7 4.43-7.26-1.34-6.17-13.87.22-34.23 13.2-42.3 1.85-1.15 3.13-1.61 2.95 1.26-.48 7.54 1.65 14.79 2.35 21.76zm-38.59 67.91c9.69.84 18.28 3.68 25.63 9.54 6.56 5.23 10.44 11.92 11.03 20.46.22 3.2-.93 4.06-3.94 3.92-11.57-.54-19.46-6.23-23.68-16.87-2.37-5.97-3.56-12.49-9.04-17.05zM99.93 41.15c1.07 8.5 4.15 16.22 6.07 24.26 1.3 5.45-.45 10.17-3.78 14.44-1.74 2.23-3.72 4.31-5.21 6.69-1.92 3.06-3.1 2.39-4.88-.17-9.47-13.59-6.09-34.68 7.8-45.22zm-21.57 92.93c16.22-2.25 33.07 8.77 36.21 23.08 1.12 5.08.65 4.93-4.33 5.23-12.75.76-19.67-5.99-23.84-16.99-1.61-4.27-5.12-7.28-8.04-11.32zM74.24 13.03c-.21 5.99 3.13 10.47 5.35 15.39 4.43 9.84 3.39 18.99-3.8 27.32-2.11 2.45-3.59 2.79-5.75.04-6.24-7.94-7.44-16.79-5.17-26.33 1.46-6.22 4.19-11.8 9.37-16.42zm-10.67 90.24c16.15-3.59 32.87 5.56 37.57 19.8.92 2.79 1.12 4.42-2.69 3.98-2.28-.26-4.63.04-6.95.17-5.37.32-9.89-1.61-13.2-5.69-4.84-5.98-8.43-12.92-14.73-18.26zm-16.86-26.6c17.51-5.41 32.97 1.45 39.06 17.01-4.06.67-8.02 1.59-12.02 1.9-4.88.38-9.28-1.37-12.49-5.05-4.25-4.87-8.76-9.45-14.55-13.86zM27 51.69c14.63-6.37 29.22-2.75 36.55 8.44 1.66 2.53 1.74 3.67-1.49 4.87-9.14 3.37-17.16 2.96-23.7-5.24-2.83-3.54-6.97-5.49-11.36-8.07zM75.2 348.7l.2-.12-.02.27z" fill="#fff" id="Layer_2"/></svg>