<svg xmlns="http://www.w3.org/2000/svg" viewBox="0 0 197.47 531.65"><style>.st0{fill:#fff}</style><g id="Layer_1"><path class="st0" d="M83.43 500.61c18.55-14.17 47.56-21.85 68.38-10.27 5.62 3.13 10.17 7.37 14.38 12.15 1.9 2.15 1.09 2.91-1.08 3.76-5.73 2.25-11.1 5.21-16.48 8.18-9.45 5.23-18.81 4.37-27.86-1.21-3.68-2.26-7.34-4.54-10.95-6.92-7.86-5.16-16.12-8.56-26.39-5.69zM52.4 449.43c23.83-13 58.3-14.06 75.71 11.63 2.17 3.2 2.36 4.58-1.79 5.68-6.57 1.75-12.99 4.04-19.5 5.99-5.54 1.66-10.84.95-15.79-2.1-5.26-3.23-10.01-7.13-14.65-11.15-6.77-5.85-13.94-10.69-23.98-10.05zm-23.56-55.62c8.53-2.51 17.18-3.67 25.97-3.07 18.8 1.28 34.08 8.41 42.49 26.45 2.66 5.71 2.62 5.71-3.41 6.41-5.44.63-10.86 1.4-16.3 2-7.49.82-13.74-1.73-18.69-7.36-3.51-3.99-6.95-8.06-10.34-12.16-5.18-6.26-11.02-11.41-19.72-12.27zm134.55 26.83c-.7 9.37 4.15 16.23 9.86 22.74 2.41 2.75 4.95 5.43 7.04 8.41 5.5 7.82 6.42 16.28 2.62 25.1-1.65 3.83-3.32 7.65-4.15 11.75-.64 3.19-2.03 3.14-4.38 1.63-10.31-6.6-16.13-16.18-18.36-28-2.76-14.68.88-28.35 7.37-41.63zM16.26 340.95c15.69-1.57 30.92-.36 44.5 9.04 8.6 5.95 13.78 14.17 16.42 24.19.71 2.7.64 4.07-2.76 3.86-5.47-.35-10.96-.37-16.44-.49-7.7-.17-13.77-3.24-17.92-9.89-3.34-5.36-6.7-10.7-10.19-15.96-3.3-5-7.63-8.75-13.61-10.75zm121.29 44.57c-1.35 8.01 1.44 14.83 5.59 21.31 1.98 3.08 4.04 6.12 5.82 9.32 4.48 8.08 4.42 16.15-.22 24.22-2.07 3.6-4.09 7.26-5.7 11.07-1.22 2.88-2.22 3.04-4.51 1.04-10.02-8.76-14.44-19.79-13.28-32.92 1.08-12.3 5.86-23.4 12.3-34.04zm-126.8-96.74c18.28.84 34.74 5.49 46 21.23 3.43 4.79 5.53 10.2 6.3 16.1.8 6.09.83 6.11-5.41 5.22l-.5-.06c-23.8-3.77-24.02-3.86-33.26-26.24-2.77-6.73-6.49-12.56-13.13-16.25zm1.1-50.26c21.31.64 41.59 18.31 44.49 38.8.21 1.48.25 2.98.31 4.47.15 3.54-.81 5.24-4.85 3.65-4.62-1.82-9.45-3.11-14.19-4.64-6.21-2.01-10.03-6.26-11.73-12.5-.79-2.88-1.65-5.75-2.3-8.66-1.84-8.21-4.76-15.79-11.65-21.21l-.08.09zM119.47 351.6c-1.83 10.61 3.01 19.44 6.17 28.64 2.69 7.82 1.72 15.05-3.54 21.58-2.81 3.5-5.76 6.91-8.3 10.6-1.96 2.84-3.13 1.91-4.64-.23-5.48-7.76-8.09-16.32-7.3-25.83 1.14-13.85 7.8-24.96 17.61-34.76zm-11.45-38.97c-3.48 7.51-3.12 15.21-.76 22.85 3.72 12.03 1.22 21.94-9.33 29.39-.94.66-1.75 1.53-2.57 2.35-5.48 5.51-5.55 5.54-8.43-1.94-5.93-15.38-1.94-29.02 7.71-41.48 3.56-4.61 7.73-8.69 12.65-11.91.24.25.49.49.73.74zM20.01 192c17.47 6.84 31.68 14.99 36.09 33.58 1.13 4.76.86 9.58.67 14.4-.1 2.42-1.04 2.73-3.15 1.76-4.97-2.3-10.11-4.24-15.03-6.65-4.53-2.22-8-5.84-8.68-10.92-1.45-10.8-4.77-20.99-9.9-32.17zm13.46-43.96c18.19 6.6 30.5 24.35 29.52 41.4-.06.99-.12 1.99-.28 2.97-1.29 7.9-1.79 8.14-8.45 4.11-1.84-1.12-3.64-2.33-5.55-3.32-7.98-4.16-11.44-10.93-10.81-19.65.62-8.61-1.36-16.72-4.43-25.51zm68.14 126.09c-5.57 7.57-5.47 14.98-4.38 22.52 1.74 11.98-1.68 19.27-11.92 25.57-3.06 1.88-5.92 4.11-8.89 6.18-10.95-20.07 3.38-44.44 25.19-54.27zM49.37 108.06c20.32 10.38 28.97 29.87 22.99 48.3-1.19 3.68-2.33 4.36-5.73 2.05-9.78-6.67-15.3-15.43-14.91-27.54.24-7.31 3.19-14.71-2.35-22.81zm48.64 130.57c-3.74 4.76-5.28 10.2-5.31 16.21-.01 2.81-.32 5.62-.62 8.42-.89 8.29-5.4 13.68-13.25 16.37-.94.32-1.84.76-2.76 1.14-9.14 3.75-9.42 3.63-9.2-6.2.35-15.76 9.73-25.5 22.4-32.9 2.56-1.5 5.17-3 8.14-3.64.2.2.39.41.6.6zm1.98-38.36c-4.4 9.31-5.64 18.38-8.44 27-1.66 5.13-5.69 8.51-10.81 10.39-2.34.86-4.74 1.56-7.06 2.47-5.51 2.16-6 2.04-6.32-4.05-.46-8.62 3.01-15.91 8.71-22.15 6.09-6.69 13.6-11.1 23.92-13.66zM72.11 74.62c16.06 8.31 23.35 31.21 15.09 45.75-1.58 2.77-2.86 3.98-5.07.65-.63-.95-1.5-1.84-2.46-2.45-10.16-6.51-11.58-15.92-8.89-26.66 1.39-5.55.93-11.21 1.33-17.29zm36.91 92.13c-7.07 5.56-7.7 13.61-11.15 20.28-4.72 9.13-12.35 13.52-22.62 13.66-2.99.04-3.7-1.11-3.57-3.81.29-6.07 2.49-11.34 6.34-15.92 6.5-7.76 19.17-13.72 31-14.21zM96.89 41.15c14.08 10.34 17.38 32.62 7.53 45.68-1.67 2.22-2.64 2.42-4.25.03-1.76-2.61-3.84-5-5.82-7.46-4.01-4.97-4.64-10.68-2.93-16.51 2.05-7 4.47-13.9 5.47-21.74zm22.31 92.5c-6.69 6.15-9.01 13.53-12.97 19.95-5.37 8.68-14.25 8.79-22.91 9.2-2.11.1-1.45-1.86-1.33-3.04.45-4.76 2.18-9.09 5.14-12.79 7.82-9.79 18.24-13.62 32.07-13.32zm2.93-121.04c12.68 9.11 14.55 33.79 3.89 44.2-2.02 1.97-2.93 1.02-4.33-.46-7.55-8.02-9.14-17.99-4.04-28.64 2.28-4.77 5-9.28 4.48-15.1zm11.59 90.24c-5.98 5.54-9.85 11.08-13.54 16.78-5.81 8.96-14.98 7.77-23.75 7.47-2.33-.08-1.26-1.77-.96-2.94 1.68-6.35 5.28-11.45 10.56-15.23 7.89-5.63 16.8-7.15 27.69-6.08zm16.64-26.49c-5.96 4.75-10.57 9.49-15.05 14.37-4.49 4.89-10.35 5.82-16.49 4.21-2.51-.66-6.65.56-7.21-1.75-.68-2.84 2.25-5.67 4.29-8.03 9.07-10.55 20.56-12.24 34.46-8.8zm19.01-24.23c-6.2 2.78-10.63 7.54-15.51 11.74-4.55 3.91-16.47 3.98-21.15.4-1.06-.82-.7-1.56-.3-2.56 4.76-11.85 25.62-17.51 36.96-9.58zM11.92 238.44c-.32-.04-.63-.08-.95-.11l.24-.45c.21.21.42.43.64.64l.07-.08z"/><path class="st0" d="M107.29 311.89c.42-.3.74-1.21 1.32-.65.48.47.02 1.08-.58 1.39-.25-.25-.5-.49-.74-.74zm-9.87-73.87c.36-.08.73-.15 1.09-.23-.17.28-.34.56-.5.84-.21-.19-.4-.4-.59-.61z"/></g></svg>