<svg
    xmlns="http://www.w3.org/2000/svg"
    width="241.2"
    height="119.6"
    viewBox="0 0 241.2 119.6"
    fill="none"
>
    <linearGradient id="logo-pl-small-gradient_1_" gradientUnits="userSpaceOnUse" x1="12.263" y1="-524.38" x2="35.703" y2="-557.855" gradientTransform="matrix(1 0 0 -1 0 -477.6)">
        <stop offset="0" stop-color="#fcd3a5"/>
        <stop offset="1" stop-color="#f7901e"/>
    </linearGradient>

    <linearGradient id="logo-pl-small-gradient_2_" gradientUnits="userSpaceOnUse" x1="-23.87" y1="1088.681" x2="-.451" y2="1055.236" gradientTransform="matrix(-1 0 0 1 82.892 -1015.876)">
        <stop offset="0" stop-color="#fcd3a5"/>
        <stop offset="1" stop-color="#f7901e"/>
    </linearGradient>

    <linearGradient id="logo-pl-small-gradient_3_" gradientUnits="userSpaceOnUse" x1="-822.141" y1="277.639" x2="-798.713" y2="244.182" gradientTransform="matrix(-.0052 -1 -1 .0052 320.859 -716.36)">
        <stop offset="0" stop-color="#CACBEF"/>
        <stop offset="1" stop-color="#32325D"/>
    </linearGradient>

    <linearGradient id="logo-pl-small-gradient_4_" gradientUnits="userSpaceOnUse" x1="809.739" y1="284.361" x2="833.82" y2="249.971" gradientTransform="matrix(.0098 1 1 -.0098 -218.147 -794.508)">
        <stop offset="0" stop-color="#CACBEF"/>
        <stop offset="1" stop-color="#32325D"/>
    </linearGradient>

    <path
        fill="#32325D"
        d="M223.7 27.2c0 2.8-2.2 5-5.1 5-2.9 0-5.1-2.2-5.1-5s2.3-5 5.1-5c2.9.1 5.1 2.3 5.1 5m-9 0c0 2.2 1.6 4 3.9 4 2.2 0 3.8-1.8 3.8-3.9 0-2.2-1.6-4-3.8-4s-3.9 1.8-3.9 3.9m3.1 2.7h-1.2v-5c.5-.1 1.1-.2 1.9-.2.9 0 1.4.2 1.7.4.3.2.5.6.5 1.1s-.4 1-1 1.2v.1c.5.2.8.5.9 1.2.2.8.2 1.1.4 1.2h-1.2c-.2-.2-.2-.6-.4-1.2-.1-.5-.4-.8-1-.8h-.5l-.1 2zm0-2.9h.5c.6 0 1.2-.2 1.2-.7s-.3-.8-1.1-.8c-.3 0-.5 0-.6.1V27zm-72.2 76.9V76.4h19.3c11.8 0 22.6-12.9 22.6-27 0-7.2-2.4-14-6.8-19.3-4.3-5.2-10.1-8.1-15.8-8.1h-31.7v81.9h12.4zm28.9-54.5c0 8.9-5.5 16.3-12 16.3h-17V33h17c6.8 0 12 7 12 16.4m32.9 42.1h31.5c.3 2.2.3 3 .3 4.9 0 4-.3 6.5-.3 6.5h-44.3V22.2c2.6-.2 4.8-.3 7.3-.3 4.8 0 5.5.3 5.5.3v69.3z"
    />
    <path
        fill="url(#logo-pl-small-gradient_1_)"
        d="M23.5 77.2c-.5-.3-.9-.6-1.4-1-4.4-3.5-7.3-8.7-8.1-14.3-1.3-9.8 5.7-22.2 16.1-24C16.9 39.7 6.8 51.1 6.8 64.8c0 10.9 6.5 20.3 15.7 24.7-.3-4.2-.1-8.4 1-12.3z"
    />
    <path
        fill="#F7901E"
        d="M31.8 37.8c1.7-.8 3.5-1.3 5.1-3.6 1.8-2.4 2.3-4.1 3-7.2 0-1.6-1-1.4-6.2-1.4C15.6 25.6.8 40.3.8 58.5c0 14.1 8.9 26.2 21.5 30.8-1.3-.7-2.6-1.6-3.9-2.6-5.6-4.4-9.3-11-10.2-18.1C7.3 61.3 9.5 53.8 14 48c3.8-5 11.2-10.2 17.8-10.2z"
    />
    <path
        fill="#F7901E"
        d="M31.5 56.8c0-3.8-3.1-6.9-6.9-6.9s-6.9 3.1-6.9 6.9 3.1 6.9 6.9 6.9c3.8-.1 6.9-3.1 6.9-6.9z"
    />
    <path
        fill="url(#logo-pl-small-gradient_2_)"
        d="M95.4 42.3c.5.3.9.6 1.4 1 4.4 3.5 7.3 8.6 8.1 14.2 1.3 9.8-5.6 22.2-16 24.1 13.2-1.9 23.3-13.3 23.2-27 0-10.9-6.5-20.3-15.9-24.6.5 4.2.2 8.3-.8 12.3z"
    />
    <path
        fill="#F7901E"
        d="M87.2 81.8c-1.7.8-3.5 1.3-5.1 3.6-1.7 2.4-2.3 4.1-3 7.2 0 1.6 1 1.4 6.2 1.3 18.1-.1 32.8-14.9 32.7-33 0-14.1-9-26.1-21.6-30.7 1.3.7 2.6 1.5 3.9 2.6 5.6 4.4 9.4 11 10.3 18.1 1 7.3-1.1 14.9-5.7 20.7-3.8 4.9-11 10-17.7 10.2z"
    />
    <path
        fill="#F7901E"
        d="M87.4 62.7c0 3.8 3.1 6.8 6.9 6.8s6.8-3.1 6.8-6.9c0-3.8-3.1-6.8-6.9-6.8-3.7.1-6.8 3.1-6.8 6.9z"
    />
    <path
        fill="url(#logo-pl-small-gradient_3_)"
        d="M77.8 95.9c-.3.5-.6.9-1 1.4-3.5 4.4-8.6 7.4-14.2 8.1-9.8 1.3-22.2-5.6-24.1-16 1.9 13.2 13.3 23.2 27 23.2 10.9 0 20.3-6.5 24.6-15.9-4.2.5-8.3.2-12.3-.8z" 
    />
    <path
        fill="#32325D"
        d="M38.4 87.7c-.8-1.7-1.3-3.5-3.6-5.1-2.4-1.7-4.1-2.3-7.2-3-1.6 0-1.4 1-1.3 6.2.1 18.1 14.9 32.8 33 32.7 14.1-.1 26.2-9.1 30.7-21.6-.7 1.3-1.5 2.6-2.6 4-4.4 5.6-11 9.4-18.1 10.3-7.3 1-14.9-1.1-20.7-5.7-4.9-3.8-10.1-11.1-10.2-17.8z"
    />
    <path
        fill="#32325D"
        d="M57.4 87.9c-3.8 0-6.8 3.1-6.8 6.9s3.1 6.8 6.9 6.8 6.8-3.1 6.8-6.9c0-3.7-3.1-6.8-6.9-6.8z"
    />
    <path
        fill="url(#logo-pl-small-gradient_4_)"
        d="M42.6 24.1c.3-.5.6-.9 1-1.4 3.5-4.4 8.6-7.4 14.2-8.2 9.8-1.4 23.7 5.5 25.6 15.9C81.4 17.3 70 7.2 56.2 7.3c-10.9.1-21.7 6.7-25.9 16 4.1-.4 8.3-.1 12.3.8z"
    />
    <path
        fill="#32325D"
        d="M82.1 32.1c.8 1.7 1.3 3.4 3.6 5.1 2.4 1.7 4.1 2.3 7.2 2.9 1.6 0 1.4-1 1.3-6.2C94 15.8 79.2 1.2 61 1.4c-14.1.1-26.1 9.2-30.6 21.8.7-1.3 1.5-2.7 2.5-4 4.4-5.7 10.9-9.4 18-10.4 7.3-1 14.9 1 20.7 5.5 5.1 3.9 10.3 11.2 10.5 17.8z"
    />
    <path
        fill="#32325D"
        d="M63 32c3.8 0 6.8-3.1 6.8-6.9s-3.1-6.8-6.9-6.8c-3.8 0-6.8 3.1-6.8 6.9.1 3.8 3.1 6.9 6.9 6.8z"
    />
</svg>
